<svg xmlns="http://www.w3.org/2000/svg" xmlns:xlink="http://www.w3.org/1999/xlink" width="340" height="430" fill="#000" fill-opacity="1" stroke="#000" stroke-dasharray="none" stroke-dashoffset="0" stroke-linecap="square" stroke-linejoin="miter" stroke-miterlimit="10" stroke-opacity="1" stroke-width="1" color-interpolation="auto" color-rendering="auto" font-family="'Dialog'" font-size="12" font-style="normal" font-weight="normal" image-rendering="auto" shape-rendering="auto" text-rendering="auto" viewBox="420 120 340 430"><g><defs id="defs1"><clipPath id="clipPath1" clipPathUnits="userSpaceOnUse"><path d="M0 0 L2147483647 0 L2147483647 2147483647 L0 2147483647 L0 0 Z"/></clipPath><clipPath id="clipPath2" clipPathUnits="userSpaceOnUse"><path d="M0 0 L0 60 L140 60 L140 0 Z"/></clipPath><clipPath id="clipPath3" clipPathUnits="userSpaceOnUse"><path d="M0 0 L0 80 L110 80 L110 0 Z"/></clipPath><clipPath id="clipPath4" clipPathUnits="userSpaceOnUse"><path d="M0 0 L0 80 L120 80 L120 0 Z"/></clipPath><clipPath id="clipPath5" clipPathUnits="userSpaceOnUse"><path d="M0 0 L0 80 L30 80 L30 0 Z"/></clipPath></defs><g fill="#FFF" fill-opacity="0" stroke="#FFF" stroke-opacity="0" transform="translate(600,470)"><rect width="138.5" height="58.5" x=".5" y=".5" stroke="none" clip-path="url(#clipPath2)"/></g><g transform="translate(600,470)"><rect width="138.5" height="58.5" x=".5" y=".5" fill="none" clip-path="url(#clipPath2)"/><text x="11" y="34.719" stroke="none" clip-path="url(#clipPath2)" font-family="sans-serif" font-size="14" font-weight="bold" xml:space="preserve">Vulkan Renderer</text></g><g fill="#FFF" fill-opacity="0" stroke="#FFF" stroke-opacity="0" transform="translate(440,470)"><rect width="138.5" height="58.5" x=".5" y=".5" stroke="none" clip-path="url(#clipPath2)"/></g><g transform="translate(440,470)"><rect width="138.5" height="58.5" x=".5" y=".5" fill="none" clip-path="url(#clipPath2)"/><text x="8" y="34.719" stroke="none" clip-path="url(#clipPath2)" font-family="sans-serif" font-size="14" font-weight="bold" xml:space="preserve">OpenGL Renderer</text></g><g fill="#FFF" fill-opacity="0" stroke="#FFF" stroke-opacity="0" transform="translate(520,360)"><rect width="138.5" height="58.5" x=".5" y=".5" stroke="none" clip-path="url(#clipPath2)"/></g><g transform="translate(520,360)"><rect width="138.5" height="58.5" x=".5" y=".5" fill="none" clip-path="url(#clipPath2)"/><text x="11" y="34.719" stroke="none" clip-path="url(#clipPath2)" font-family="sans-serif" font-size="14" font-weight="bold" xml:space="preserve">Level 1 Renderer</text></g><g fill="#FFF" fill-opacity="0" stroke="#FFF" stroke-opacity="0" transform="translate(520,250)"><rect width="138.5" height="58.5" x=".5" y=".5" stroke="none" clip-path="url(#clipPath2)"/></g><g transform="translate(520,250)"><rect width="138.5" height="58.5" x=".5" y=".5" fill="none" clip-path="url(#clipPath2)"/><text x="11" y="34.719" stroke="none" clip-path="url(#clipPath2)" font-family="sans-serif" font-size="14" font-weight="bold" xml:space="preserve">Level 2 Renderer</text></g><g fill="#FFF" fill-opacity="0" stroke="#FFF" stroke-opacity="0" transform="translate(520,140)"><rect width="138.5" height="58.5" x=".5" y=".5" stroke="none" clip-path="url(#clipPath2)"/></g><g transform="translate(520,140)"><rect width="138.5" height="58.5" x=".5" y=".5" fill="none" clip-path="url(#clipPath2)"/><text x="31" y="34.719" stroke="none" clip-path="url(#clipPath2)" font-family="sans-serif" font-size="14" font-weight="bold" xml:space="preserve">Gamestate</text></g><g><path fill="none" d="M89.652 59.97 L10.5 10.5" clip-path="url(#clipPath3)" transform="translate(580,410)"/><path fill="none" d="M83.9739 48.7561 L90.076 60.235 L77.084 59.7801" clip-path="url(#clipPath3)" transform="translate(580,410)"/></g><g><path fill="none" d="M11.3742 60.0144 L100.5 10.5" clip-path="url(#clipPath4)" transform="translate(490,410)"/><path fill="none" d="M23.9353 60.4717 L10.9371 60.2572 L17.622 49.1076" clip-path="url(#clipPath4)" transform="translate(490,410)"/></g><g><path fill="none" d="M10.5 59.5 L10.5 10.5" clip-path="url(#clipPath5)" transform="translate(580,300)"/><path fill="none" d="M17 48.7417 L10.5 60 L4 48.7417" clip-path="url(#clipPath5)" transform="translate(580,300)"/></g><g><path fill="none" d="M10.5 59.5 L10.5 10.5" clip-path="url(#clipPath5)" transform="translate(580,190)"/><path fill="none" d="M17 48.7417 L10.5 60 L4 48.7417" clip-path="url(#clipPath5)" transform="translate(580,190)"/></g></g></svg>