<svg xmlns="http://www.w3.org/2000/svg" xmlns:xlink="http://www.w3.org/1999/xlink" width="1078" height="590" version="1.1" viewBox="147 55 1078 590"><defs><pattern id="djs-grid-pattern-182042" width="10" height="10" patternUnits="userSpaceOnUse"><circle cx=".5" cy=".5" r=".5" style="fill:#ccc"/></pattern><marker id="sequenceflow-end-white-hsl_225_10_15_-72ahc8dkx1fa4vwdi2sizzlsw" markerHeight="10" markerWidth="10" orient="auto" refX="11" refY="10" viewBox="0 0 20 20"><path d="M 1 5 L 11 10 L 1 15 Z" style="stroke-linecap:round;stroke-linejoin:round;stroke:#22242a;stroke-width:1px;fill:#22242a"/></marker><marker id="conditional-default-flow-marker-white-hsl_225_10_15_-72ahc8dkx1fa4vwdi2sizzlsw" markerHeight="10" markerWidth="10" orient="auto" refX="0" refY="10" viewBox="0 0 20 20"><path d="M 6 4 L 10 16" style="stroke-linecap:round;stroke-linejoin:round;stroke:#22242a;stroke-width:2px;fill:#fff"/></marker><marker id="sequenceflow-end-white-var_element_dragger_color_-72ahc8dkx1fa4vwdi2sizzlsw" markerHeight="10" markerWidth="10" orient="auto" refX="11" refY="10" viewBox="0 0 20 20"><path d="M 1 5 L 11 10 L 1 15 Z" style="stroke-linecap:round;stroke-linejoin:round;stroke:var(--element-dragger-color);stroke-width:1px;fill:var(--element-dragger-color)"/></marker></defs><g class="djs-group"><g class="djs-element djs-shape" data-element-id="StartEvent_0qgna6z" transform="matrix(1, 0, 0, 1, 152, 322)" style="display:block"><g class="djs-visual"><circle cx="18" cy="18" r="18" style="stroke-linecap:round;stroke-linejoin:round;stroke:#22242a;stroke-width:2px;fill:#fff;fill-opacity:.95"/></g><rect style="fill:none;stroke-opacity:0;stroke:#fff;stroke-width:15px" width="36" height="36" x="0" y="0" class="djs-hit djs-hit-all"/><circle cx="18" cy="18" r="23" style="fill:none" class="djs-outline"/></g></g><g class="djs-group"><g class="djs-element djs-shape" data-element-id="Activity_1vw9hx2" transform="matrix(1, 0, 0, 1, 240, 300)" style="display:block"><g class="djs-visual"><rect width="100" height="80" x="0" y="0" rx="10" ry="10" style="stroke-linecap:round;stroke-linejoin:round;stroke:#22242a;stroke-width:2px;fill:#fff;fill-opacity:.95"/><text style="font-family:Arial,sans-serif;font-size:12px;font-weight:400;fill:#22242a" class="djs-label" lineHeight="1.2"><tspan x="40.333" y="43.6">Idle</tspan></text></g><rect style="fill:none;stroke-opacity:0;stroke:#fff;stroke-width:15px" width="100" height="80" x="0" y="0" class="djs-hit djs-hit-all"/><rect width="110" height="90" x="-5" y="-5" rx="14" style="fill:none" class="djs-outline"/></g></g><g class="djs-group"><g class="djs-element djs-shape" data-element-id="Gateway_1asqxmg" transform="matrix(1, 0, 0, 1, 395, 315)" style="display:block"><g class="djs-visual"><polygon style="stroke-linecap:round;stroke-linejoin:round;stroke:#22242a;stroke-width:2px;fill:#fff;fill-opacity:.95" points="25 0 50 25 25 50 0 25"/><path style="fill:#22242a;stroke-linecap:round;stroke-linejoin:round;stroke:#22242a;stroke-width:1px" d="m 16,15 7.42857142857143,9.714285714285715 -7.42857142857143,9.714285714285715 3.428571428571429,0 5.714285714285715,-7.464228571428572 5.714285714285715,7.464228571428572 3.428571428571429,0 -7.42857142857143,-9.714285714285715 7.42857142857143,-9.714285714285715 -3.428571428571429,0 -5.714285714285715,7.464228571428572 -5.714285714285715,-7.464228571428572 -3.428571428571429,0 z"/></g><rect style="fill:none;stroke-opacity:0;stroke:#fff;stroke-width:15px" width="50" height="50" x="0" y="0" class="djs-hit djs-hit-all"/><rect style="transform-box:fill-box;transform:rotate(45deg);transform-origin:center center 0;fill:none" width="46" height="46" x="2" y="2" class="djs-outline" rx="4"/></g></g><g class="djs-group"><g class="djs-element djs-shape" data-element-id="Gateway_1asqxmg_label" transform="matrix(1, 0, 0, 1, 350, 356)" style="display:block"><g class="djs-visual"><text style="font-family:Arial,sans-serif;font-size:11px;font-weight:400;fill:#22242a" class="djs-label" lineHeight="1.2"><tspan x="0" y="9.9">command in </tspan><tspan x="11.611" y="23.1">queue?</tspan></text></g><rect style="fill:none;stroke-opacity:0;stroke:#fff;stroke-width:15px" width="60" height="27" x="0" y="0" class="djs-hit djs-hit-all"/><rect width="70" height="37" x="-5" y="-5" rx="4" style="fill:none" class="djs-outline"/></g></g><g class="djs-group"><g class="djs-element djs-shape" data-element-id="Gateway_0c9igeh" transform="matrix(1, 0, 0, 1, 395, 165)" style="display:block"><g class="djs-visual"><polygon style="stroke-linecap:round;stroke-linejoin:round;stroke:#22242a;stroke-width:2px;fill:#fff;fill-opacity:.95" points="25 0 50 25 25 50 0 25"/><circle cx="25" cy="25" r="15" style="stroke-linecap:round;stroke-linejoin:round;stroke:#22242a;stroke-width:1px;fill:none"/><circle cx="25" cy="25" r="12" style="stroke-linecap:round;stroke-linejoin:round;stroke:#22242a;stroke-width:1px;fill:none"/><path style="fill:none;stroke-linecap:round;stroke-linejoin:round;stroke:#22242a;stroke-width:2px" d="m 18,22 7.363636363636364,-4.909090909090909 7.363636363636364,4.909090909090909 -2.4545454545454546,9.818181818181818 -9.818181818181818,0 z"/></g><rect style="fill:none;stroke-opacity:0;stroke:#fff;stroke-width:15px" width="50" height="50" x="0" y="0" class="djs-hit djs-hit-all"/><rect style="transform-box:fill-box;transform:rotate(45deg);transform-origin:center center 0;fill:none" width="46" height="46" x="2" y="2" class="djs-outline" rx="4"/></g></g><g class="djs-group"><g class="djs-element djs-shape" data-element-id="Gateway_0c9igeh_label" transform="matrix(1, 0, 0, 1, 296, 183)" style="display:block"><g class="djs-visual"><text style="font-family:Arial,sans-serif;font-size:11px;font-weight:400;fill:#22242a" class="djs-label" lineHeight="1.2"><tspan x="0" y="9.9">wait for command</tspan></text></g><rect style="fill:none;stroke-opacity:0;stroke:#fff;stroke-width:15px" width="87" height="14" x="0" y="0" class="djs-hit djs-hit-all"/><rect width="97" height="24" x="-5" y="-5" rx="4" style="fill:none" class="djs-outline"/></g></g><g class="djs-group"><g class="djs-element djs-shape" data-element-id="Gateway_1357rjc" transform="matrix(1, 0, 0, 1, 525, 315)" style="display:block"><g class="djs-visual"><polygon style="stroke-linecap:round;stroke-linejoin:round;stroke:#22242a;stroke-width:2px;fill:#fff;fill-opacity:.95" points="25 0 50 25 25 50 0 25"/><path style="fill:#22242a;stroke-linecap:round;stroke-linejoin:round;stroke:#22242a;stroke-width:1px" d="m 16,15 7.42857142857143,9.714285714285715 -7.42857142857143,9.714285714285715 3.428571428571429,0 5.714285714285715,-7.464228571428572 5.714285714285715,7.464228571428572 3.428571428571429,0 -7.42857142857143,-9.714285714285715 7.42857142857143,-9.714285714285715 -3.428571428571429,0 -5.714285714285715,7.464228571428572 -5.714285714285715,-7.464228571428572 -3.428571428571429,0 z"/></g><rect style="fill:none;stroke-opacity:0;stroke:#fff;stroke-width:15px" width="50" height="50" x="0" y="0" class="djs-hit djs-hit-all"/><rect style="transform-box:fill-box;transform:rotate(45deg);transform-origin:center center 0;fill:none" width="46" height="46" x="2" y="2" class="djs-outline" rx="4"/></g></g><g class="djs-group"><g class="djs-element djs-shape" data-element-id="Gateway_1357rjc_label" transform="matrix(1, 0, 0, 1, 485, 356)" style="display:block"><g class="djs-visual"><text style="font-family:Arial,sans-serif;font-size:11px;font-weight:400;fill:#22242a" class="djs-label" lineHeight="1.2"><tspan x="0" y="9.9">branch on </tspan><tspan x=".322" y="23.1">command</tspan></text></g><rect style="fill:none;stroke-opacity:0;stroke:#fff;stroke-width:15px" width="49" height="27" x="0" y="0" class="djs-hit djs-hit-all"/><rect width="59" height="37" x="-5" y="-5" rx="4" style="fill:none" class="djs-outline"/></g></g><g class="djs-group"><g class="djs-element djs-shape" data-element-id="Activity_1hnefez" transform="matrix(1, 0, 0, 1, 640, 510)" style="display:block"><g class="djs-visual"><rect width="100" height="80" x="0" y="0" rx="10" ry="10" style="stroke-linecap:round;stroke-linejoin:round;stroke:#22242a;stroke-width:2px;fill:#fff;fill-opacity:.95"/><text style="font-family:Arial,sans-serif;font-size:12px;font-weight:400;fill:#22242a" class="djs-label" lineHeight="1.2"><tspan x="31.667" y="43.6">Gather</tspan></text><rect width="14" height="14" x="0" y="0" rx="0" ry="0" style="stroke-linecap:round;stroke-linejoin:round;stroke:#22242a;stroke-width:1px;fill:#fff" transform="matrix(1, 0, 0, 1, 42.5, 60)"/><path style="fill:#fff;stroke-linecap:round;stroke-linejoin:round;stroke:#22242a;stroke-width:2px" d="m42.5,60 m 7,2 l 0,10 m -5,-5 l 10,0" data-marker="sub-process"/></g><rect style="fill:none;stroke-opacity:0;stroke:#fff;stroke-width:15px" width="100" height="80" x="0" y="0" class="djs-hit djs-hit-all"/><rect width="110" height="90" x="-5" y="-5" rx="14" style="fill:none" class="djs-outline"/></g></g><g class="djs-group"><g class="djs-element djs-shape" data-element-id="Activity_0p0wutd" transform="matrix(1, 0, 0, 1, 640, 370)" style="display:block"><g class="djs-visual"><rect width="100" height="80" x="0" y="0" rx="10" ry="10" style="stroke-linecap:round;stroke-linejoin:round;stroke:#22242a;stroke-width:2px;fill:#fff;fill-opacity:.95"/><text style="font-family:Arial,sans-serif;font-size:12px;font-weight:400;fill:#22242a" class="djs-label" lineHeight="1.2"><tspan x="33.333" y="43.6">Attack</tspan></text><rect width="14" height="14" x="0" y="0" rx="0" ry="0" style="stroke-linecap:round;stroke-linejoin:round;stroke:#22242a;stroke-width:1px;fill:#fff" transform="matrix(1, 0, 0, 1, 42.5, 60)"/><path style="fill:#fff;stroke-linecap:round;stroke-linejoin:round;stroke:#22242a;stroke-width:2px" d="m42.5,60 m 7,2 l 0,10 m -5,-5 l 10,0" data-marker="sub-process"/></g><rect style="fill:none;stroke-opacity:0;stroke:#fff;stroke-width:15px" width="100" height="80" x="0" y="0" class="djs-hit djs-hit-all"/><rect width="110" height="90" x="-5" y="-5" rx="14" style="fill:none" class="djs-outline"/></g></g><g class="djs-group"><g class="djs-element djs-shape" data-element-id="Activity_1fxshgl" transform="matrix(1, 0, 0, 1, 690, 100)" style="display:block"><g class="djs-visual"><rect width="530" height="228" x="0" y="0" rx="10" ry="10" style="stroke-linecap:round;stroke-linejoin:round;stroke:#22242a;stroke-width:2px;fill:#fff;fill-opacity:.95"/></g><rect style="fill:none;stroke-opacity:0;stroke:#fff;stroke-width:15px" width="530" height="228" x="0" y="0" class="djs-hit djs-hit-no-move"/><rect style="fill:none;stroke-opacity:0;stroke:#fff;stroke-width:15px" width="530" height="228" x="0" y="0" class="djs-hit djs-hit-click-stroke"/><rect style="fill:none;stroke-opacity:0;stroke:#fff;stroke-width:15px" width="530" height="30" x="0" y="0" class="djs-hit djs-hit-all"/><rect width="540" height="238" x="-5" y="-5" rx="14" style="fill:none" class="djs-outline"/></g><g class="djs-children"><g class="djs-group"><g class="djs-element djs-shape" data-element-id="Event_112uia5" transform="matrix(1, 0, 0, 1, 730, 202)" style="display:block"><g class="djs-visual"><circle cx="18" cy="18" r="18" style="stroke-linecap:round;stroke-linejoin:round;stroke:#22242a;stroke-width:2px;fill:#fff;fill-opacity:.95"/></g><rect style="fill:none;stroke-opacity:0;stroke:#fff;stroke-width:15px" width="36" height="36" x="0" y="0" class="djs-hit djs-hit-all"/><circle cx="18" cy="18" r="23" style="fill:none" class="djs-outline"/></g></g><g class="djs-group"><g class="djs-element djs-shape" data-element-id="Activity_0219f1g" transform="matrix(1, 0, 0, 1, 820, 180)" style="display:block"><g class="djs-visual"><rect width="100" height="80" x="0" y="0" rx="10" ry="10" style="stroke-linecap:round;stroke-linejoin:round;stroke:#22242a;stroke-width:2px;fill:#fff;fill-opacity:.95"/><text style="font-family:Arial,sans-serif;font-size:12px;font-weight:400;fill:#22242a" class="djs-label" lineHeight="1.2"><tspan x="35.333" y="43.6">Move</tspan></text></g><rect style="fill:none;stroke-opacity:0;stroke:#fff;stroke-width:15px" width="100" height="80" x="0" y="0" class="djs-hit djs-hit-all"/><rect width="110" height="90" x="-5" y="-5" rx="14" style="fill:none" class="djs-outline"/></g></g><g class="djs-group"><g class="djs-element djs-shape" data-element-id="Gateway_051vhsb" transform="matrix(1, 0, 0, 1, 975, 195)" style="display:block"><g class="djs-visual"><polygon style="stroke-linecap:round;stroke-linejoin:round;stroke:#22242a;stroke-width:2px;fill:#fff;fill-opacity:.95" points="25 0 50 25 25 50 0 25"/><circle cx="25" cy="25" r="15" style="stroke-linecap:round;stroke-linejoin:round;stroke:#22242a;stroke-width:1px;fill:none"/><circle cx="25" cy="25" r="12" style="stroke-linecap:round;stroke-linejoin:round;stroke:#22242a;stroke-width:1px;fill:none"/><path style="fill:none;stroke-linecap:round;stroke-linejoin:round;stroke:#22242a;stroke-width:2px" d="m 18,22 7.363636363636364,-4.909090909090909 7.363636363636364,4.909090909090909 -2.4545454545454546,9.818181818181818 -9.818181818181818,0 z"/></g><rect style="fill:none;stroke-opacity:0;stroke:#fff;stroke-width:15px" width="50" height="50" x="0" y="0" class="djs-hit djs-hit-all"/><rect style="transform-box:fill-box;transform:rotate(45deg);transform-origin:center center 0;fill:none" width="46" height="46" x="2" y="2" class="djs-outline" rx="4"/></g></g><g class="djs-group"><g class="djs-element djs-shape" data-element-id="Event_035ouy9" transform="matrix(1, 0, 0, 1, 982, 272)" style="display:block"><g class="djs-visual"><circle cx="18" cy="18" r="18" style="stroke-linecap:round;stroke-linejoin:round;stroke:#22242a;stroke-width:1.5px;fill:#fff;fill-opacity:.95"/><circle cx="18" cy="18" r="15" style="stroke-linecap:round;stroke-linejoin:round;stroke:#22242a;stroke-width:1.5px;fill:none"/><circle cx="18" cy="18" r="11" style="stroke-linecap:round;stroke-linejoin:round;stroke:#22242a;stroke-width:2px;fill:#fff"/><path style="fill:none;stroke-linecap:round;stroke-linejoin:round;stroke:#22242a;stroke-width:2px" d="M 18,18 l 2.25,-7.5 m -2.25,7.5 l 5.25,1.5"/><path style="fill:none;stroke-linecap:round;stroke-linejoin:round;stroke:#22242a;stroke-width:1px" d="M 18,18 m 0,7.5 l -0,2.25" transform="rotate(0,18,18)"/><path style="fill:none;stroke-linecap:round;stroke-linejoin:round;stroke:#22242a;stroke-width:1px" d="M 18,18 m 0,7.5 l -0,2.25" transform="rotate(30,18,18)"/><path style="fill:none;stroke-linecap:round;stroke-linejoin:round;stroke:#22242a;stroke-width:1px" d="M 18,18 m 0,7.5 l -0,2.25" transform="rotate(60,18,18)"/><path style="fill:none;stroke-linecap:round;stroke-linejoin:round;stroke:#22242a;stroke-width:1px" d="M 18,18 m 0,7.5 l -0,2.25" transform="rotate(90,18,18)"/><path style="fill:none;stroke-linecap:round;stroke-linejoin:round;stroke:#22242a;stroke-width:1px" d="M 18,18 m 0,7.5 l -0,2.25" transform="rotate(120,18,18)"/><path style="fill:none;stroke-linecap:round;stroke-linejoin:round;stroke:#22242a;stroke-width:1px" d="M 18,18 m 0,7.5 l -0,2.25" transform="rotate(150,18,18)"/><path style="fill:none;stroke-linecap:round;stroke-linejoin:round;stroke:#22242a;stroke-width:1px" d="M 18,18 m 0,7.5 l -0,2.25" transform="rotate(180,18,18)"/><path style="fill:none;stroke-linecap:round;stroke-linejoin:round;stroke:#22242a;stroke-width:1px" d="M 18,18 m 0,7.5 l -0,2.25" transform="rotate(210,18,18)"/><path style="fill:none;stroke-linecap:round;stroke-linejoin:round;stroke:#22242a;stroke-width:1px" d="M 18,18 m 0,7.5 l -0,2.25" transform="rotate(240,18,18)"/><path style="fill:none;stroke-linecap:round;stroke-linejoin:round;stroke:#22242a;stroke-width:1px" d="M 18,18 m 0,7.5 l -0,2.25" transform="rotate(270,18,18)"/><path style="fill:none;stroke-linecap:round;stroke-linejoin:round;stroke:#22242a;stroke-width:1px" d="M 18,18 m 0,7.5 l -0,2.25" transform="rotate(300,18,18)"/><path style="fill:none;stroke-linecap:round;stroke-linejoin:round;stroke:#22242a;stroke-width:1px" d="M 18,18 m 0,7.5 l -0,2.25" transform="rotate(330,18,18)"/></g><rect style="fill:none;stroke-opacity:0;stroke:#fff;stroke-width:15px" width="36" height="36" x="0" y="0" class="djs-hit djs-hit-all"/><circle cx="18" cy="18" r="23" style="fill:none" class="djs-outline"/></g></g><g class="djs-group"><g class="djs-element djs-shape" data-element-id="Event_035ouy9_label" transform="matrix(1, 0, 0, 1, 904, 283)" style="display:block"><g class="djs-visual"><text style="font-family:Arial,sans-serif;font-size:11px;font-weight:400;fill:#22242a" class="djs-label" lineHeight="1.2"><tspan x="0" y="9.9">move finished</tspan></text></g><rect style="fill:none;stroke-opacity:0;stroke:#fff;stroke-width:15px" width="68" height="14" x="0" y="0" class="djs-hit djs-hit-all"/><rect width="78" height="24" x="-5" y="-5" rx="4" style="fill:none" class="djs-outline"/></g></g><g class="djs-group"><g class="djs-element djs-shape" data-element-id="Event_0iisn5s" transform="matrix(1, 0, 0, 1, 1062, 272)" style="display:block"><g class="djs-visual"><circle cx="18" cy="18" r="18" style="stroke-linecap:round;stroke-linejoin:round;stroke:#22242a;stroke-width:4px;fill:#fff;fill-opacity:.95"/></g><rect style="fill:none;stroke-opacity:0;stroke:#fff;stroke-width:15px" width="36" height="36" x="0" y="0" class="djs-hit djs-hit-all"/><circle cx="18" cy="18" r="24" style="fill:none" class="djs-outline"/></g></g><g class="djs-group"><g class="djs-element djs-shape" data-element-id="Event_1o7mito" transform="matrix(1, 0, 0, 1, 982, 122)" style="display:block"><g class="djs-visual"><circle cx="18" cy="18" r="18" style="stroke-linecap:round;stroke-linejoin:round;stroke:#22242a;stroke-width:1.5px;fill:#fff;fill-opacity:.95"/><circle cx="18" cy="18" r="15" style="stroke-linecap:round;stroke-linejoin:round;stroke:#22242a;stroke-width:1.5px;fill:none"/><path style="fill:#fff;stroke-linecap:round;stroke-linejoin:round;stroke:#22242a;stroke-width:1px" d="M 18,7.2 l 9,16.2 l -18,0 Z"/></g><rect style="fill:none;stroke-opacity:0;stroke:#fff;stroke-width:15px" width="36" height="36" x="0" y="0" class="djs-hit djs-hit-all"/><circle cx="18" cy="18" r="23" style="fill:none" class="djs-outline"/></g></g><g class="djs-group"><g class="djs-element djs-shape" data-element-id="Event_1o7mito_label" transform="matrix(1, 0, 0, 1, 902, 133)" style="display:block"><g class="djs-visual"><text style="font-family:Arial,sans-serif;font-size:11px;font-weight:400;fill:#22242a" class="djs-label" lineHeight="1.2"><tspan x="0" y="9.9">new command</tspan></text></g><rect style="fill:none;stroke-opacity:0;stroke:#fff;stroke-width:15px" width="72" height="14" x="0" y="0" class="djs-hit djs-hit-all"/><rect width="82" height="24" x="-5" y="-5" rx="4" style="fill:none" class="djs-outline"/></g></g><g class="djs-group"><g class="djs-element djs-shape" data-element-id="Event_0rzs9k0" transform="matrix(1, 0, 0, 1, 1062, 122)" style="display:block"><g class="djs-visual"><circle cx="18" cy="18" r="18" style="stroke-linecap:round;stroke-linejoin:round;stroke:#22242a;stroke-width:4px;fill:#fff;fill-opacity:.95"/></g><rect style="fill:none;stroke-opacity:0;stroke:#fff;stroke-width:15px" width="36" height="36" x="0" y="0" class="djs-hit djs-hit-all"/><circle cx="18" cy="18" r="24" style="fill:none" class="djs-outline"/></g></g><g class="djs-group"><g class="djs-element djs-connection" data-element-id="Flow_0hoix6u" style="display:block"><g class="djs-visual"><path style="fill:none;stroke-linecap:round;stroke-linejoin:round;stroke:#22242a;stroke-width:2px;marker-end:url(#sequenceflow-end-white-hsl_225_10_15_-72ahc8dkx1fa4vwdi2sizzlsw)" d="M766,220L820,220" data-corner-radius="5"/></g><path d="M766,220L820,220" style="fill:none;stroke-opacity:0;stroke:#fff;stroke-width:15px" class="djs-hit djs-hit-stroke"/><rect width="64" height="10" x="761" y="215" rx="4" style="fill:none" class="djs-outline"/></g></g><g class="djs-group"><g class="djs-element djs-connection" data-element-id="Flow_0ckzwlj" style="display:block"><g class="djs-visual"><path style="fill:none;stroke-linecap:round;stroke-linejoin:round;stroke:#22242a;stroke-width:2px;marker-end:url(#sequenceflow-end-white-hsl_225_10_15_-72ahc8dkx1fa4vwdi2sizzlsw)" d="M920,220L975,220" data-corner-radius="5"/></g><path d="M920,220L975,220" style="fill:none;stroke-opacity:0;stroke:#fff;stroke-width:15px" class="djs-hit djs-hit-stroke"/><rect width="65" height="10" x="915" y="215" rx="4" style="fill:none" class="djs-outline"/></g></g><g class="djs-group"><g class="djs-element djs-connection" data-element-id="Flow_1o68c9e" style="display:block"><g class="djs-visual"><path style="fill:none;stroke-linecap:round;stroke-linejoin:round;stroke:#22242a;stroke-width:2px;marker-end:url(#sequenceflow-end-white-hsl_225_10_15_-72ahc8dkx1fa4vwdi2sizzlsw)" d="M1000,245L1000,272" data-corner-radius="5"/></g><path d="M1000,245L1000,272" style="fill:none;stroke-opacity:0;stroke:#fff;stroke-width:15px" class="djs-hit djs-hit-stroke"/><rect width="10" height="37" x="995" y="240" rx="4" style="fill:none" class="djs-outline"/></g></g><g class="djs-group"><g class="djs-element djs-connection" data-element-id="Flow_1e7ekvs" style="display:block"><g class="djs-visual"><path style="fill:none;stroke-linecap:round;stroke-linejoin:round;stroke:#22242a;stroke-width:2px;marker-end:url(#sequenceflow-end-white-hsl_225_10_15_-72ahc8dkx1fa4vwdi2sizzlsw)" d="M1018,290L1062,290" data-corner-radius="5"/></g><path d="M1018,290L1062,290" style="fill:none;stroke-opacity:0;stroke:#fff;stroke-width:15px" class="djs-hit djs-hit-stroke"/><rect width="54" height="10" x="1013" y="285" rx="4" style="fill:none" class="djs-outline"/></g></g><g class="djs-group"><g class="djs-element djs-connection" data-element-id="Flow_0at0uvi" style="display:block"><g class="djs-visual"><path style="fill:none;stroke-linecap:round;stroke-linejoin:round;stroke:#22242a;stroke-width:2px;marker-end:url(#sequenceflow-end-white-hsl_225_10_15_-72ahc8dkx1fa4vwdi2sizzlsw)" d="M1000,195L1000,158" data-corner-radius="5"/></g><path d="M1000,195L1000,158" style="fill:none;stroke-opacity:0;stroke:#fff;stroke-width:15px" class="djs-hit djs-hit-stroke"/><rect width="10" height="47" x="995" y="153" rx="4" style="fill:none" class="djs-outline"/></g></g><g class="djs-group"><g class="djs-element djs-connection" data-element-id="Flow_1eujvgt" style="display:block"><g class="djs-visual"><path style="fill:none;stroke-linecap:round;stroke-linejoin:round;stroke:#22242a;stroke-width:2px;marker-end:url(#sequenceflow-end-white-hsl_225_10_15_-72ahc8dkx1fa4vwdi2sizzlsw)" d="M1018,140L1062,140" data-corner-radius="5"/></g><path d="M1018,140L1062,140" style="fill:none;stroke-opacity:0;stroke:#fff;stroke-width:15px" class="djs-hit djs-hit-stroke"/><rect width="54" height="10" x="1013" y="135" rx="4" style="fill:none" class="djs-outline"/></g></g></g></g><g class="djs-group"><g class="djs-element djs-shape" data-element-id="Event_1ykoo8h" transform="matrix(1, 0, 0, 1, 492, 172)" style="display:block"><g class="djs-visual"><circle cx="18" cy="18" r="18" style="stroke-linecap:round;stroke-linejoin:round;stroke:#22242a;stroke-width:1.5px;fill:#fff;fill-opacity:.95"/><circle cx="18" cy="18" r="15" style="stroke-linecap:round;stroke-linejoin:round;stroke:#22242a;stroke-width:1.5px;fill:none"/><path style="fill:#fff;stroke-linecap:round;stroke-linejoin:round;stroke:#22242a;stroke-width:1px" d="M 18,7.2 l 9,16.2 l -18,0 Z"/></g><rect style="fill:none;stroke-opacity:0;stroke:#fff;stroke-width:15px" width="36" height="36" x="0" y="0" class="djs-hit djs-hit-all"/><circle cx="18" cy="18" r="23" style="fill:none" class="djs-outline"/></g></g><g class="djs-group"><g class="djs-element djs-shape" data-element-id="Event_1ykoo8h_label" transform="matrix(1, 0, 0, 1, 485, 136)" style="display:block"><g class="djs-visual"><text style="font-family:Arial,sans-serif;font-size:11px;font-weight:400;fill:#22242a" class="djs-label" lineHeight="1.2"><tspan x="0" y="9.9">command </tspan><tspan x="3.344" y="23.1">received</tspan></text></g><rect style="fill:none;stroke-opacity:0;stroke:#fff;stroke-width:15px" width="49" height="27" x="0" y="0" class="djs-hit djs-hit-all"/><rect width="59" height="37" x="-5" y="-5" rx="4" style="fill:none" class="djs-outline"/></g></g><g class="djs-group"><g class="djs-element djs-connection" data-element-id="Flow_1hma2lu" style="display:block"><g class="djs-visual"><path style="fill:none;stroke-linecap:round;stroke-linejoin:round;stroke:#22242a;stroke-width:2px;marker-end:url(#sequenceflow-end-white-hsl_225_10_15_-72ahc8dkx1fa4vwdi2sizzlsw)" d="M188,340L240,340" data-corner-radius="5"/></g><path d="M188,340L240,340" style="fill:none;stroke-opacity:0;stroke:#fff;stroke-width:15px" class="djs-hit djs-hit-stroke"/><rect width="62" height="10" x="183" y="335" rx="4" style="fill:none" class="djs-outline"/></g></g><g class="djs-group"><g class="djs-element djs-connection" data-element-id="Flow_1kk0x6z" style="display:block"><g class="djs-visual"><path style="fill:none;stroke-linecap:round;stroke-linejoin:round;stroke:#22242a;stroke-width:2px;marker-end:url(#sequenceflow-end-white-hsl_225_10_15_-72ahc8dkx1fa4vwdi2sizzlsw)" d="M340,340L395,340" data-corner-radius="5"/></g><path d="M340,340L395,340" style="fill:none;stroke-opacity:0;stroke:#fff;stroke-width:15px" class="djs-hit djs-hit-stroke"/><rect width="65" height="10" x="335" y="335" rx="4" style="fill:none" class="djs-outline"/></g></g><g class="djs-group"><g class="djs-element djs-connection" data-element-id="Flow_0enxg3f" style="display:block"><g class="djs-visual"><path style="fill:none;stroke-linecap:round;stroke-linejoin:round;stroke:#22242a;stroke-width:2px;marker-end:url(#sequenceflow-end-white-hsl_225_10_15_-72ahc8dkx1fa4vwdi2sizzlsw);marker-start:url(#conditional-default-flow-marker-white-hsl_225_10_15_-72ahc8dkx1fa4vwdi2sizzlsw)" d="M420,315L420,215" data-corner-radius="5"/></g><path d="M420,315L420,215" style="fill:none;stroke-opacity:0;stroke:#fff;stroke-width:15px" class="djs-hit djs-hit-stroke"/><rect width="10" height="110" x="415" y="210" rx="4" style="fill:none" class="djs-outline"/></g></g><g class="djs-group"><g class="djs-element djs-connection" data-element-id="Flow_0hi01vx" style="display:block"><g class="djs-visual"><path style="fill:none;stroke-linecap:round;stroke-linejoin:round;stroke:#22242a;stroke-width:2px;marker-end:url(#sequenceflow-end-white-hsl_225_10_15_-72ahc8dkx1fa4vwdi2sizzlsw)" d="M445,340L525,340" data-corner-radius="5"/></g><path d="M445,340L525,340" style="fill:none;stroke-opacity:0;stroke:#fff;stroke-width:15px" class="djs-hit djs-hit-stroke"/><rect width="90" height="10" x="440" y="335" rx="4" style="fill:none" class="djs-outline"/></g></g><g class="djs-group"><g class="djs-element djs-connection" data-element-id="Flow_0xjlmc1" style="display:block"><g class="djs-visual"><path style="fill:none;stroke-linecap:round;stroke-linejoin:round;stroke:#22242a;stroke-width:2px;marker-end:url(#sequenceflow-end-white-hsl_225_10_15_-72ahc8dkx1fa4vwdi2sizzlsw)" d="M575,340L605,340C607.5,340,610,342.5,610,345L610,405C610,407.5,612.5,410,615,410L640,410" data-corner-radius="5"/></g><path d="M575,340L610,340L610,410L640,410" style="fill:none;stroke-opacity:0;stroke:#fff;stroke-width:15px" class="djs-hit djs-hit-stroke"/><rect width="75" height="80" x="570" y="335" rx="4" style="fill:none" class="djs-outline"/></g></g><g class="djs-group"><g class="djs-element djs-connection" data-element-id="Flow_19cz0cq" style="display:block"><g class="djs-visual"><path style="fill:none;stroke-linecap:round;stroke-linejoin:round;stroke:#22242a;stroke-width:2px;marker-end:url(#sequenceflow-end-white-hsl_225_10_15_-72ahc8dkx1fa4vwdi2sizzlsw)" d="M575,340L605,340C607.5,340,610,342.5,610,345L610,545C610,547.5,612.5,550,615,550L640,550" data-corner-radius="5"/></g><path d="M575,340L610,340L610,550L640,550" style="fill:none;stroke-opacity:0;stroke:#fff;stroke-width:15px" class="djs-hit djs-hit-stroke"/><rect width="75" height="220" x="570" y="335" rx="4" style="fill:none" class="djs-outline"/></g></g><g class="djs-group"><g class="djs-element djs-connection" data-element-id="Flow_1m17qbo" style="display:block"><g class="djs-visual"><path style="fill:none;stroke-linecap:round;stroke-linejoin:round;stroke:#22242a;stroke-width:2px;marker-end:url(#sequenceflow-end-white-hsl_225_10_15_-72ahc8dkx1fa4vwdi2sizzlsw)" d="M575,340L605,340C607.5,340,610,337.5,610,335L610,225C610,222.5,612.5,220,615,220L690,220" data-corner-radius="5"/></g><path d="M575,340L610,340L610,220L690,220" style="fill:none;stroke-opacity:0;stroke:#fff;stroke-width:15px" class="djs-hit djs-hit-stroke"/><rect width="125" height="130" x="570" y="215" rx="4" style="fill:none" class="djs-outline"/></g></g><g class="djs-group"><g class="djs-element djs-shape" data-element-id="Flow_1m17qbo_label" transform="matrix(1, 0, 0, 1, 612, 278)" style="display:block"><g class="djs-visual"><text style="font-family:Arial,sans-serif;font-size:11px;font-weight:400;fill:#22242a" class="djs-label" lineHeight="1.2"><tspan x="0" y="9.9">Move</tspan></text></g><rect style="fill:none;stroke-opacity:0;stroke:#fff;stroke-width:15px" width="27" height="14" x="0" y="0" class="djs-hit djs-hit-all"/><rect width="37" height="24" x="-5" y="-5" rx="4" style="fill:none" class="djs-outline"/></g></g><g class="djs-group"><g class="djs-element djs-connection" data-element-id="Flow_1hz4mcw" style="display:block"><g class="djs-visual"><path style="fill:none;stroke-linecap:round;stroke-linejoin:round;stroke:#22242a;stroke-width:2px;marker-end:url(#sequenceflow-end-white-hsl_225_10_15_-72ahc8dkx1fa4vwdi2sizzlsw)" d="M445,190L492,190" data-corner-radius="5"/></g><path d="M445,190L492,190" style="fill:none;stroke-opacity:0;stroke:#fff;stroke-width:15px" class="djs-hit djs-hit-stroke"/><rect width="57" height="10" x="440" y="185" rx="4" style="fill:none" class="djs-outline"/></g></g><g class="djs-group"><g class="djs-element djs-connection" data-element-id="Flow_128zpkc" style="display:block"><g class="djs-visual"><path style="fill:none;stroke-linecap:round;stroke-linejoin:round;stroke:#22242a;stroke-width:2px;marker-end:url(#sequenceflow-end-white-hsl_225_10_15_-72ahc8dkx1fa4vwdi2sizzlsw)" d="M510,208L510,275C510,277.5,511.3867504905631,282.0801257358446,512.7735009811262,284.1602514716892L540,325" data-corner-radius="5"/></g><path d="M510,208L510,280L540,325" style="fill:none;stroke-opacity:0;stroke:#fff;stroke-width:15px" class="djs-hit djs-hit-stroke"/><rect width="40" height="127" x="505" y="203" rx="4" style="fill:none" class="djs-outline"/></g></g><g class="djs-group"><g class="djs-element djs-connection" data-element-id="Flow_1vpd2my" style="display:block"><g class="djs-visual"><path style="fill:none;stroke-linecap:round;stroke-linejoin:round;stroke:#22242a;stroke-width:2px;marker-end:url(#sequenceflow-end-white-hsl_225_10_15_-72ahc8dkx1fa4vwdi2sizzlsw)" d="M1080,328L1080,635C1080,637.5,1077.5,640,1075,640L265,640C262.5,640,260,637.5,260,635L260,380" data-corner-radius="5"/></g><path d="M1080,328L1080,640L260,640L260,380" style="fill:none;stroke-opacity:0;stroke:#fff;stroke-width:15px" class="djs-hit djs-hit-stroke"/><rect width="830" height="322" x="255" y="323" rx="4" style="fill:none" class="djs-outline"/></g></g><g class="djs-group"><g class="djs-element djs-connection" data-element-id="Flow_1h4u5zb" style="display:block"><g class="djs-visual"><path style="fill:none;stroke-linecap:round;stroke-linejoin:round;stroke:#22242a;stroke-width:2px;marker-end:url(#sequenceflow-end-white-hsl_225_10_15_-72ahc8dkx1fa4vwdi2sizzlsw)" d="M1080,100L1080,65C1080,62.5,1077.5,60,1075,60L555,60C552.5,60,550,62.5,550,65L550,315" data-corner-radius="5"/></g><path d="M1080,100L1080,60L550,60L550,315" style="fill:none;stroke-opacity:0;stroke:#fff;stroke-width:15px" class="djs-hit djs-hit-stroke"/><rect width="540" height="265" x="545" y="55" rx="4" style="fill:none" class="djs-outline"/></g></g><g class="djs-group"><g class="djs-element djs-connection" data-element-id="Flow_1u7alri" style="display:block"><g class="djs-visual"><path style="fill:none;stroke-linecap:round;stroke-linejoin:round;stroke:#22242a;stroke-width:2px;marker-end:url(#sequenceflow-end-white-hsl_225_10_15_-72ahc8dkx1fa4vwdi2sizzlsw);marker-start:url(#conditional-default-flow-marker-white-hsl_225_10_15_-72ahc8dkx1fa4vwdi2sizzlsw)" d="M550,365L550,485C550,487.5,547.5,490,545,490L325,490C322.5,490,320,487.5,320,485L320,380" data-corner-radius="5"/></g><path d="M550,365L550,490L320,490L320,380" style="fill:none;stroke-opacity:0;stroke:#fff;stroke-width:15px" class="djs-hit djs-hit-stroke"/><rect width="240" height="135" x="315" y="360" rx="4" style="fill:none" class="djs-outline"/></g></g></svg>