<svg xmlns="http://www.w3.org/2000/svg" xmlns:xlink="http://www.w3.org/1999/xlink" width="530" height="200" fill="#000" fill-opacity="1" stroke="#000" stroke-dasharray="none" stroke-dashoffset="0" stroke-linecap="square" stroke-linejoin="miter" stroke-miterlimit="10" stroke-opacity="1" stroke-width="1" color-interpolation="auto" color-rendering="auto" font-family="'Dialog'" font-size="12" font-style="normal" font-weight="normal" image-rendering="auto" shape-rendering="auto" text-rendering="auto" viewBox="480 270 530 200"><g><defs id="defs1"><clipPath id="clipPath1" clipPathUnits="userSpaceOnUse"><path d="M0 0 L2147483647 0 L2147483647 2147483647 L0 2147483647 L0 0 Z"/></clipPath><clipPath id="clipPath2" clipPathUnits="userSpaceOnUse"><path d="M0 0 L0 60 L130 60 L130 0 Z"/></clipPath><clipPath id="clipPath3" clipPathUnits="userSpaceOnUse"><path d="M0 0 L0 160 L280 160 L280 0 Z"/></clipPath><clipPath id="clipPath4" clipPathUnits="userSpaceOnUse"><path d="M0 0 L0 30 L110 30 L110 0 Z"/></clipPath></defs><g fill="#FFF" fill-opacity="0" stroke="#FFF" stroke-opacity="0" transform="translate(860,290)"><rect width="128.5" height="58.5" x=".5" y=".5" stroke="none" clip-path="url(#clipPath2)"/></g><g transform="translate(860,290)"><rect width="128.5" height="58.5" x=".5" y=".5" fill="none" clip-path="url(#clipPath2)"/><text x="29" y="34.719" stroke="none" clip-path="url(#clipPath2)" font-family="sans-serif" font-size="14" font-weight="bold" xml:space="preserve">Command</text></g><g fill="#FFF" fill-opacity="0" stroke="#FFF" stroke-opacity="0" transform="translate(500,290)"><rect width="278.5" height="158.5" x=".5" y=".5" stroke="none" clip-path="url(#clipPath3)"/></g><g transform="translate(500,290)"><rect width="278.5" height="158.5" x=".5" y=".5" fill="none" clip-path="url(#clipPath3)"/><text x="81" y="18.359" stroke="none" clip-path="url(#clipPath3)" font-family="sans-serif" font-size="14" font-weight="bold" xml:space="preserve">CommandQueue</text><path fill="none" d="M1 24.3594 L279 24.3594" clip-path="url(#clipPath3)"/><text x="5" y="39.719" stroke="none" clip-path="url(#clipPath3)" font-family="sans-serif" font-size="14" xml:space="preserve">command_queue: curve::Queue</text><path fill="none" d="M1 45.7188 L279 45.7188" clip-path="url(#clipPath3)"/><text x="5" y="61.078" stroke="none" clip-path="url(#clipPath3)" font-family="sans-serif" font-size="14" xml:space="preserve">add_command(time_t, Command): void</text><text x="5" y="77.438" stroke="none" clip-path="url(#clipPath3)" font-family="sans-serif" font-size="14" xml:space="preserve">get_queue(): curve::Queue</text></g><g stroke-dasharray="8 5" stroke-linecap="butt" stroke-miterlimit="5"><path fill="none" d="M89.5 10.5 L10.5 10.5" clip-path="url(#clipPath4)" transform="translate(770,310)"/><path fill="none" stroke-dasharray="none" stroke-linecap="square" stroke-miterlimit="10" d="M78.7417 4 L90 10.5 L78.7417 17" clip-path="url(#clipPath4)" transform="translate(770,310)"/></g></g></svg>