<svg xmlns="http://www.w3.org/2000/svg" xmlns:xlink="http://www.w3.org/1999/xlink" width="530" height="240" fill="#000" fill-opacity="1" stroke="#000" stroke-dasharray="none" stroke-dashoffset="0" stroke-linecap="square" stroke-linejoin="miter" stroke-miterlimit="10" stroke-opacity="1" stroke-width="1" color-interpolation="auto" color-rendering="auto" font-family="'Dialog'" font-size="12" font-style="normal" font-weight="normal" image-rendering="auto" shape-rendering="auto" text-rendering="auto" viewBox="480 30 530 240"><g><defs id="defs1"><clipPath id="clipPath1" clipPathUnits="userSpaceOnUse"><path d="M0 0 L2147483647 0 L2147483647 2147483647 L0 2147483647 L0 0 Z"/></clipPath><clipPath id="clipPath2" clipPathUnits="userSpaceOnUse"><path d="M0 0 L0 60 L130 60 L130 0 Z"/></clipPath><clipPath id="clipPath3" clipPathUnits="userSpaceOnUse"><path d="M0 0 L0 200 L280 200 L280 0 Z"/></clipPath><clipPath id="clipPath4" clipPathUnits="userSpaceOnUse"><path d="M0 0 L0 60 L30 60 L30 0 Z"/></clipPath><clipPath id="clipPath5" clipPathUnits="userSpaceOnUse"><path d="M0 0 L0 30 L110 30 L110 0 Z"/></clipPath></defs><g fill="#FFF" fill-opacity="0" stroke="#FFF" stroke-opacity="0" transform="translate(860,140)"><rect width="128.5" height="58.5" x=".5" y=".5" stroke="none" clip-path="url(#clipPath2)"/></g><g transform="translate(860,140)"><rect width="128.5" height="58.5" x=".5" y=".5" fill="none" clip-path="url(#clipPath2)"/><text x="46" y="34.719" stroke="none" clip-path="url(#clipPath2)" font-family="sans-serif" font-size="14" font-weight="bold" xml:space="preserve">Node</text></g><g fill="#FFF" fill-opacity="0" stroke="#FFF" stroke-opacity="0" transform="translate(860,50)"><rect width="128.5" height="58.5" x=".5" y=".5" stroke="none" clip-path="url(#clipPath2)"/></g><g transform="translate(860,50)"><rect width="128.5" height="58.5" x=".5" y=".5" fill="none" clip-path="url(#clipPath2)"/><text x="38" y="34.719" stroke="none" clip-path="url(#clipPath2)" font-family="sans-serif" font-size="14" font-weight="bold" xml:space="preserve">Activity</text></g><g fill="#FFF" fill-opacity="0" stroke="#FFF" stroke-opacity="0" transform="translate(500,50)"><rect width="278.5" height="198.5" x=".5" y=".5" stroke="none" clip-path="url(#clipPath3)"/></g><g transform="translate(500,50)"><rect width="278.5" height="198.5" x=".5" y=".5" fill="none" clip-path="url(#clipPath3)"/><text x="113" y="18.359" stroke="none" clip-path="url(#clipPath3)" font-family="sans-serif" font-size="14" font-weight="bold" xml:space="preserve">Activity</text><path fill="none" d="M1 24.3594 L279 24.3594" clip-path="url(#clipPath3)"/><text x="5" y="39.719" stroke="none" clip-path="url(#clipPath3)" font-family="sans-serif" font-size="14" xml:space="preserve">start_activity: Activity</text><text x="5" y="56.078" stroke="none" clip-path="url(#clipPath3)" font-family="sans-serif" font-size="14" xml:space="preserve">node: curve::Discrete</text><text x="5" y="72.438" stroke="none" clip-path="url(#clipPath3)" font-family="sans-serif" font-size="14" xml:space="preserve">scheduled_events: vector&lt;Event&gt;</text><path fill="none" d="M1 78.4375 L279 78.4375" clip-path="url(#clipPath3)"/><text x="5" y="93.797" stroke="none" clip-path="url(#clipPath3)" font-family="sans-serif" font-size="14" xml:space="preserve">get_start_activity(): Activity</text><text x="5" y="110.156" stroke="none" clip-path="url(#clipPath3)" font-family="sans-serif" font-size="14" xml:space="preserve">get_node(time_t): Node</text><text x="5" y="126.516" stroke="none" clip-path="url(#clipPath3)" font-family="sans-serif" font-size="14" xml:space="preserve">set_node(time_t, Node): void</text><text x="5" y="142.875" stroke="none" clip-path="url(#clipPath3)" font-family="sans-serif" font-size="14" xml:space="preserve">init(time_t): void</text><text x="5" y="159.234" stroke="none" clip-path="url(#clipPath3)" font-family="sans-serif" font-size="14" xml:space="preserve">add_event(Event): void</text><text x="5" y="175.594" stroke="none" clip-path="url(#clipPath3)" font-family="sans-serif" font-size="14" xml:space="preserve">cancel_events(): void</text></g><g stroke-dasharray="8 5" stroke-linecap="butt" stroke-miterlimit="5"><path fill="none" d="M10.5 39.5 L10.5 10.5" clip-path="url(#clipPath4)" transform="translate(920,100)"/><path fill="none" stroke-dasharray="none" stroke-linecap="square" stroke-miterlimit="10" d="M17 28.7417 L10.5 40 L4 28.7417" clip-path="url(#clipPath4)" transform="translate(920,100)"/></g><g stroke-dasharray="8 5" stroke-linecap="butt" stroke-miterlimit="5"><path fill="none" d="M89.5 10.5 L10.5 10.5" clip-path="url(#clipPath5)" transform="translate(770,160)"/><path fill="none" stroke-dasharray="none" stroke-linecap="square" stroke-miterlimit="10" d="M78.7417 4 L90 10.5 L78.7417 17" clip-path="url(#clipPath5)" transform="translate(770,160)"/></g><g stroke-dasharray="8 5" stroke-linecap="butt" stroke-miterlimit="5"><path fill="none" d="M89.5 10.5 L10.5 10.5" clip-path="url(#clipPath5)" transform="translate(770,70)"/><path fill="none" stroke-dasharray="none" stroke-linecap="square" stroke-miterlimit="10" d="M78.7417 4 L90 10.5 L78.7417 17" clip-path="url(#clipPath5)" transform="translate(770,70)"/></g></g></svg>