<svg xmlns="http://www.w3.org/2000/svg" xmlns:xlink="http://www.w3.org/1999/xlink" width="480" height="510" fill="#000" fill-opacity="1" stroke="#000" stroke-dasharray="none" stroke-dashoffset="0" stroke-linecap="square" stroke-linejoin="miter" stroke-miterlimit="10" stroke-opacity="1" stroke-width="1" color-interpolation="auto" color-rendering="auto" font-family="'Dialog'" font-size="12" font-style="normal" font-weight="normal" image-rendering="auto" shape-rendering="auto" text-rendering="auto" viewBox="690 230 480 510"><g><defs id="defs1"><clipPath id="clipPath1" clipPathUnits="userSpaceOnUse"><path d="M0 0 L2147483647 0 L2147483647 2147483647 L0 2147483647 L0 0 Z"/></clipPath><clipPath id="clipPath2" clipPathUnits="userSpaceOnUse"><path d="M0 0 L0 60 L140 60 L140 0 Z"/></clipPath><clipPath id="clipPath3" clipPathUnits="userSpaceOnUse"><path d="M0 0 L0 60 L170 60 L170 0 Z"/></clipPath><clipPath id="clipPath4" clipPathUnits="userSpaceOnUse"><path d="M0 0 L0 60 L180 60 L180 0 Z"/></clipPath><clipPath id="clipPath5" clipPathUnits="userSpaceOnUse"><path d="M0 0 L0 30 L60 30 L60 0 Z"/></clipPath><clipPath id="clipPath6" clipPathUnits="userSpaceOnUse"><path d="M0 0 L0 310 L30 310 L30 0 Z"/></clipPath><clipPath id="clipPath7" clipPathUnits="userSpaceOnUse"><path d="M0 0 L0 70 L30 70 L30 0 Z"/></clipPath></defs><g fill="#0F0" fill-opacity=".49" stroke="#0F0" stroke-opacity=".49" transform="translate(1010,660)"><rect width="138.5" height="58.5" x=".5" y=".5" stroke="none" clip-path="url(#clipPath2)"/></g><g transform="translate(1010,660)"><rect width="138.5" height="58.5" x=".5" y=".5" fill="none" clip-path="url(#clipPath2)"/><text x="53" y="34.719" stroke="none" clip-path="url(#clipPath2)" font-family="sans-serif" font-size="14" font-weight="bold" xml:space="preserve">Turn</text></g><g fill="#0F0" fill-opacity=".49" stroke="#0F0" stroke-opacity=".49" transform="translate(1010,590)"><rect width="138.5" height="58.5" x=".5" y=".5" stroke="none" clip-path="url(#clipPath2)"/></g><g transform="translate(1010,590)"><rect width="138.5" height="58.5" x=".5" y=".5" fill="none" clip-path="url(#clipPath2)"/><text x="50" y="34.719" stroke="none" clip-path="url(#clipPath2)" font-family="sans-serif" font-size="14" font-weight="bold" xml:space="preserve">Move</text></g><g fill="#0F0" fill-opacity=".49" stroke="#0F0" stroke-opacity=".49" transform="translate(1010,520)"><rect width="138.5" height="58.5" x=".5" y=".5" stroke="none" clip-path="url(#clipPath2)"/></g><g transform="translate(1010,520)"><rect width="138.5" height="58.5" x=".5" y=".5" fill="none" clip-path="url(#clipPath2)"/><text x="55" y="34.719" stroke="none" clip-path="url(#clipPath2)" font-family="sans-serif" font-size="14" font-weight="bold" xml:space="preserve">Live</text></g><g fill="#0F0" fill-opacity=".49" stroke="#0F0" stroke-opacity=".49" transform="translate(1010,450)"><rect width="138.5" height="58.5" x=".5" y=".5" stroke="none" clip-path="url(#clipPath2)"/></g><g transform="translate(1010,450)"><rect width="138.5" height="58.5" x=".5" y=".5" fill="none" clip-path="url(#clipPath2)"/><text x="56" y="34.719" stroke="none" clip-path="url(#clipPath2)" font-family="sans-serif" font-size="14" font-weight="bold" xml:space="preserve">Idle</text></g><g fill="#0F0" fill-opacity=".49" stroke="#0F0" stroke-opacity=".49" transform="translate(710,660)"><rect width="138.5" height="58.5" x=".5" y=".5" stroke="none" clip-path="url(#clipPath2)"/></g><g transform="translate(710,660)"><rect width="138.5" height="58.5" x=".5" y=".5" fill="none" clip-path="url(#clipPath2)"/><text x="41" y="34.719" stroke="none" clip-path="url(#clipPath2)" font-family="sans-serif" font-size="14" font-weight="bold" xml:space="preserve">Position</text></g><g fill="#0F0" fill-opacity=".49" stroke="#0F0" stroke-opacity=".49" transform="translate(710,590)"><rect width="138.5" height="58.5" x=".5" y=".5" stroke="none" clip-path="url(#clipPath2)"/></g><g transform="translate(710,590)"><rect width="138.5" height="58.5" x=".5" y=".5" fill="none" clip-path="url(#clipPath2)"/><text x="31" y="34.719" stroke="none" clip-path="url(#clipPath2)" font-family="sans-serif" font-size="14" font-weight="bold" xml:space="preserve">Ownership</text></g><g fill="#0F0" fill-opacity=".49" stroke="#0F0" stroke-opacity=".49" transform="translate(710,520)"><rect width="138.5" height="58.5" x=".5" y=".5" stroke="none" clip-path="url(#clipPath2)"/></g><g transform="translate(710,520)"><rect width="138.5" height="58.5" x=".5" y=".5" fill="none" clip-path="url(#clipPath2)"/><text x="11" y="34.719" stroke="none" clip-path="url(#clipPath2)" font-family="sans-serif" font-size="14" font-weight="bold" xml:space="preserve">CommandQueue</text></g><g fill="#0F0" fill-opacity=".49" stroke="#0F0" stroke-opacity=".49" transform="translate(710,450)"><rect width="138.5" height="58.5" x=".5" y=".5" stroke="none" clip-path="url(#clipPath2)"/></g><g transform="translate(710,450)"><rect width="138.5" height="58.5" x=".5" y=".5" fill="none" clip-path="url(#clipPath2)"/><text x="43" y="34.719" stroke="none" clip-path="url(#clipPath2)" font-family="sans-serif" font-size="14" font-weight="bold" xml:space="preserve">Activity</text></g><g fill="#FFAFAF" fill-opacity=".49" stroke="#FFAFAF" stroke-opacity=".49" transform="translate(950,350)"><rect width="168.5" height="58.5" x=".5" y=".5" stroke="none" clip-path="url(#clipPath3)"/></g><g transform="translate(950,350)"><rect width="168.5" height="58.5" x=".5" y=".5" fill="none" clip-path="url(#clipPath3)"/><text x="48" y="18.359" stroke="none" clip-path="url(#clipPath3)" font-family="sans-serif" font-size="14" xml:space="preserve">«interface»</text><text x="32" y="34.719" stroke="none" clip-path="url(#clipPath3)" font-family="sans-serif" font-size="14" font-weight="bold" xml:space="preserve">APIComponent</text></g><g fill="#FFAFAF" fill-opacity=".49" stroke="#FFAFAF" stroke-opacity=".49" transform="translate(730,350)"><rect width="178.5" height="58.5" x=".5" y=".5" stroke="none" clip-path="url(#clipPath4)"/></g><g transform="translate(730,350)"><rect width="178.5" height="58.5" x=".5" y=".5" fill="none" clip-path="url(#clipPath4)"/><text x="53" y="18.359" stroke="none" clip-path="url(#clipPath4)" font-family="sans-serif" font-size="14" xml:space="preserve">«interface»</text><text x="20" y="34.719" stroke="none" clip-path="url(#clipPath4)" font-family="sans-serif" font-size="14" font-weight="bold" xml:space="preserve">InternalComponent</text></g><g fill="#FFAFAF" fill-opacity=".49" stroke="#FFAFAF" stroke-opacity=".49" transform="translate(860,250)"><rect width="138.5" height="58.5" x=".5" y=".5" stroke="none" clip-path="url(#clipPath2)"/></g><g transform="translate(860,250)"><rect width="138.5" height="58.5" x=".5" y=".5" fill="none" clip-path="url(#clipPath2)"/><text x="33" y="18.359" stroke="none" clip-path="url(#clipPath2)" font-family="sans-serif" font-size="14" xml:space="preserve">«interface»</text><text x="29" y="34.719" stroke="none" clip-path="url(#clipPath2)" font-family="sans-serif" font-size="14" font-weight="bold" xml:space="preserve">Component</text></g><g><path fill="none" d="M40.5 10.5 L10.5 10.5" clip-path="url(#clipPath5)" transform="translate(970,470)"/></g><g><path fill="none" d="M40.5 10.5 L10.5 10.5" clip-path="url(#clipPath5)" transform="translate(970,540)"/></g><g><path fill="none" d="M40.5 10.5 L10.5 10.5" clip-path="url(#clipPath5)" transform="translate(970,610)"/></g><g><path fill="none" d="M40.5 10.5 L10.5 10.5" clip-path="url(#clipPath5)" transform="translate(970,680)"/></g><g><path fill="none" d="M40.5 10.5 L10.5 10.5" clip-path="url(#clipPath5)" transform="translate(840,680)"/></g><g><path fill="none" d="M40.5 10.5 L10.5 10.5" clip-path="url(#clipPath5)" transform="translate(840,610)"/></g><g><path fill="none" d="M40.5 10.5 L10.5 10.5" clip-path="url(#clipPath5)" transform="translate(840,540)"/></g><g><path fill="none" d="M40.5 10.5 L10.5 10.5" clip-path="url(#clipPath5)" transform="translate(840,470)"/></g><g><path fill="none" d="M10.5 11.5 L10.5 290.5" clip-path="url(#clipPath6)" transform="translate(970,400)"/><path fill="#fff" stroke="none" d="M4 22.2583 L10.5 11 L17 22.2583 Z" clip-path="url(#clipPath6)" transform="translate(970,400)"/><path fill="none" d="M4 22.2583 L10.5 11 L17 22.2583 Z" clip-path="url(#clipPath6)" transform="translate(970,400)"/></g><g><path fill="none" d="M10.5 11.5 L10.5 290.5" clip-path="url(#clipPath6)" transform="translate(870,400)"/><path fill="#fff" stroke="none" d="M4 22.2583 L10.5 11 L17 22.2583 Z" clip-path="url(#clipPath6)" transform="translate(870,400)"/><path fill="none" d="M4 22.2583 L10.5 11 L17 22.2583 Z" clip-path="url(#clipPath6)" transform="translate(870,400)"/></g><g><path fill="none" d="M10.5 11.5 L10.5 50.5" clip-path="url(#clipPath7)" transform="translate(960,300)"/><path fill="#fff" stroke="none" d="M4 22.2583 L10.5 11 L17 22.2583 Z" clip-path="url(#clipPath7)" transform="translate(960,300)"/><path fill="none" d="M4 22.2583 L10.5 11 L17 22.2583 Z" clip-path="url(#clipPath7)" transform="translate(960,300)"/></g><g><path fill="none" d="M10.5 11.5 L10.5 50.5" clip-path="url(#clipPath7)" transform="translate(880,300)"/><path fill="#fff" stroke="none" d="M4 22.2583 L10.5 11 L17 22.2583 Z" clip-path="url(#clipPath7)" transform="translate(880,300)"/><path fill="none" d="M4 22.2583 L10.5 11 L17 22.2583 Z" clip-path="url(#clipPath7)" transform="translate(880,300)"/></g></g></svg>