<svg xmlns="http://www.w3.org/2000/svg" xmlns:xlink="http://www.w3.org/1999/xlink" width="550" height="350" fill="#000" fill-opacity="1" stroke="#000" stroke-dasharray="none" stroke-dashoffset="0" stroke-linecap="square" stroke-linejoin="miter" stroke-miterlimit="10" stroke-opacity="1" stroke-width="1" color-interpolation="auto" color-rendering="auto" font-family="'Dialog'" font-size="12" font-style="normal" font-weight="normal" image-rendering="auto" shape-rendering="auto" text-rendering="auto" viewBox="120 340 550 350"><g><defs id="defs1"><clipPath id="clipPath1" clipPathUnits="userSpaceOnUse"><path d="M0 0 L2147483647 0 L2147483647 2147483647 L0 2147483647 L0 0 Z"/></clipPath><clipPath id="clipPath2" clipPathUnits="userSpaceOnUse"><path d="M0 0 L0 60 L170 60 L170 0 Z"/></clipPath><clipPath id="clipPath3" clipPathUnits="userSpaceOnUse"><path d="M0 0 L0 60 L140 60 L140 0 Z"/></clipPath><clipPath id="clipPath4" clipPathUnits="userSpaceOnUse"><path d="M0 0 L0 190 L260 190 L260 0 Z"/></clipPath><clipPath id="clipPath5" clipPathUnits="userSpaceOnUse"><path d="M0 0 L0 30 L110 30 L110 0 Z"/></clipPath><clipPath id="clipPath6" clipPathUnits="userSpaceOnUse"><path d="M0 0 L0 90 L30 90 L30 0 Z"/></clipPath></defs><g fill="#FFF" fill-opacity="0" stroke="#FFF" stroke-opacity="0" transform="translate(190,610)"><rect width="168.5" height="58.5" x=".5" y=".5" stroke="none" clip-path="url(#clipPath2)"/></g><g transform="translate(190,610)"><rect width="168.5" height="58.5" x=".5" y=".5" fill="none" clip-path="url(#clipPath2)"/><text x="18" y="34.719" stroke="none" clip-path="url(#clipPath2)" font-family="sans-serif" font-size="14" font-weight="bold" xml:space="preserve">WorldRenderEntity</text></g><g fill="#FFF" fill-opacity="0" stroke="#FFF" stroke-opacity="0" transform="translate(480,470)"><rect width="168.5" height="58.5" x=".5" y=".5" stroke="none" clip-path="url(#clipPath2)"/></g><g transform="translate(480,470)"><rect width="168.5" height="58.5" x=".5" y=".5" fill="none" clip-path="url(#clipPath2)"/><text x="12" y="34.719" stroke="none" clip-path="url(#clipPath2)" font-family="sans-serif" font-size="14" font-weight="bold" xml:space="preserve">GameEntityManager</text></g><g fill="#FFF" fill-opacity="0" stroke="#FFF" stroke-opacity="0" transform="translate(480,370)"><rect width="138.5" height="58.5" x=".5" y=".5" stroke="none" clip-path="url(#clipPath3)"/></g><g transform="translate(480,370)"><rect width="138.5" height="58.5" x=".5" y=".5" fill="none" clip-path="url(#clipPath3)"/><text x="29" y="34.719" stroke="none" clip-path="url(#clipPath3)" font-family="sans-serif" font-size="14" font-weight="bold" xml:space="preserve">Component</text></g><g fill="#FFF" fill-opacity="0" stroke="#FFF" stroke-opacity="0" transform="translate(140,360)"><rect width="258.5" height="188.5" x=".5" y=".5" stroke="none" clip-path="url(#clipPath4)"/></g><g transform="translate(140,360)"><rect width="258.5" height="188.5" x=".5" y=".5" fill="none" clip-path="url(#clipPath4)"/><text x="88" y="18.359" stroke="none" clip-path="url(#clipPath4)" font-family="sans-serif" font-size="14" font-weight="bold" xml:space="preserve">GameEntity</text><path fill="none" d="M1 24.3594 L259 24.3594" clip-path="url(#clipPath4)"/><text x="5" y="39.719" stroke="none" clip-path="url(#clipPath4)" font-family="sans-serif" font-size="14" xml:space="preserve">id: entity_id_t</text><text x="5" y="56.078" stroke="none" clip-path="url(#clipPath4)" font-family="sans-serif" font-size="14" xml:space="preserve">components: unordered_map</text><text x="5" y="72.438" stroke="none" clip-path="url(#clipPath4)" font-family="sans-serif" font-size="14" xml:space="preserve">render_entity: WorldRenderEntity</text><text x="5" y="88.797" stroke="none" clip-path="url(#clipPath4)" font-family="sans-serif" font-size="14" xml:space="preserve">manager: GameEntityManager</text><path fill="none" d="M1 94.7969 L259 94.7969" clip-path="url(#clipPath4)"/><text x="5" y="110.156" stroke="none" clip-path="url(#clipPath4)" font-family="sans-serif" font-size="14" xml:space="preserve">copy(): GameEntity</text><text x="5" y="126.516" stroke="none" clip-path="url(#clipPath4)" font-family="sans-serif" font-size="14" xml:space="preserve">get_component(): Component</text><text x="5" y="142.875" stroke="none" clip-path="url(#clipPath4)" font-family="sans-serif" font-size="14" xml:space="preserve">add_component(Component): void</text><text x="5" y="159.234" stroke="none" clip-path="url(#clipPath4)" font-family="sans-serif" font-size="14" xml:space="preserve">has_component(component_t): bool</text><text x="5" y="175.594" stroke="none" clip-path="url(#clipPath4)" font-family="sans-serif" font-size="14" xml:space="preserve">render_update(time_t, string): void</text></g><g stroke-dasharray="8 5" stroke-linecap="butt" stroke-miterlimit="5"><path fill="none" d="M89.5 10.5 L10.5 10.5" clip-path="url(#clipPath5)" transform="translate(390,390)"/><path fill="none" stroke-dasharray="none" stroke-linecap="square" stroke-miterlimit="10" d="M78.7417 4 L90 10.5 L78.7417 17" clip-path="url(#clipPath5)" transform="translate(390,390)"/></g><g stroke-dasharray="8 5" stroke-linecap="butt" stroke-miterlimit="5"><path fill="none" d="M89.5 10.5 L10.5 10.5" clip-path="url(#clipPath5)" transform="translate(390,490)"/><path fill="none" stroke-dasharray="none" stroke-linecap="square" stroke-miterlimit="10" d="M78.7417 4 L90 10.5 L78.7417 17" clip-path="url(#clipPath5)" transform="translate(390,490)"/><path fill="none" stroke-dasharray="none" stroke-linecap="square" stroke-miterlimit="10" d="M22.2583 4 L11 10.5 L22.2583 17" clip-path="url(#clipPath5)" transform="translate(390,490)"/></g><g stroke-dasharray="8 5" stroke-linecap="butt" stroke-miterlimit="5"><path fill="none" d="M10.5 69.5 L10.5 10.5" clip-path="url(#clipPath6)" transform="translate(260,540)"/><path fill="none" stroke-dasharray="none" stroke-linecap="square" stroke-miterlimit="10" d="M17 58.7417 L10.5 70 L4 58.7417" clip-path="url(#clipPath6)" transform="translate(260,540)"/></g></g></svg>