<svg xmlns="http://www.w3.org/2000/svg" xmlns:xlink="http://www.w3.org/1999/xlink" width="390" height="240" fill="#000" fill-opacity="1" stroke="#000" stroke-dasharray="none" stroke-dashoffset="0" stroke-linecap="square" stroke-linejoin="miter" stroke-miterlimit="10" stroke-opacity="1" stroke-width="1" color-interpolation="auto" color-rendering="auto" font-family="'Dialog'" font-size="12" font-style="normal" font-weight="normal" image-rendering="auto" shape-rendering="auto" text-rendering="auto" viewBox="180 80 390 240"><g><defs id="defs1"><clipPath id="clipPath1" clipPathUnits="userSpaceOnUse"><path d="M0 0 L2147483647 0 L2147483647 2147483647 L0 2147483647 L0 0 Z"/></clipPath><clipPath id="clipPath2" clipPathUnits="userSpaceOnUse"><path d="M0 0 L0 70 L100 70 L100 0 Z"/></clipPath><clipPath id="clipPath3" clipPathUnits="userSpaceOnUse"><path d="M0 0 L0 60 L170 60 L170 0 Z"/></clipPath><clipPath id="clipPath4" clipPathUnits="userSpaceOnUse"><path d="M0 0 L0 60 L140 60 L140 0 Z"/></clipPath><clipPath id="clipPath5" clipPathUnits="userSpaceOnUse"><path d="M0 0 L0 30 L90 30 L90 0 Z"/></clipPath><clipPath id="clipPath6" clipPathUnits="userSpaceOnUse"><path d="M0 0 L0 30 L80 30 L80 0 Z"/></clipPath><clipPath id="clipPath7" clipPathUnits="userSpaceOnUse"><path d="M0 0 L0 80 L30 80 L30 0 Z"/></clipPath></defs><g font-family="sans-serif" font-size="14" font-style="italic"><text x="5" y="18.359" stroke="none" clip-path="url(#clipPath2)" transform="translate(450,230)" xml:space="preserve">systems...</text></g><g fill="#FFF" fill-opacity="0" stroke="#FFF" stroke-opacity="0" transform="translate(200,210)"><rect width="168.5" height="58.5" x=".5" y=".5" stroke="none" clip-path="url(#clipPath3)"/></g><g transform="translate(200,210)"><rect width="168.5" height="58.5" x=".5" y=".5" fill="none" clip-path="url(#clipPath3)"/><text x="12" y="34.719" stroke="none" clip-path="url(#clipPath3)" font-family="sans-serif" font-size="14" font-weight="bold" xml:space="preserve">GameEntityManager</text></g><g fill="#FFF" fill-opacity="0" stroke="#FFF" stroke-opacity="0" transform="translate(390,100)"><rect width="138.5" height="58.5" x=".5" y=".5" stroke="none" clip-path="url(#clipPath4)"/></g><g transform="translate(390,100)"><rect width="138.5" height="58.5" x=".5" y=".5" fill="none" clip-path="url(#clipPath4)"/><text x="29" y="34.719" stroke="none" clip-path="url(#clipPath4)" font-family="sans-serif" font-size="14" font-weight="bold" xml:space="preserve">Component</text></g><g fill="#FFF" fill-opacity="0" stroke="#FFF" stroke-opacity="0" transform="translate(200,100)"><rect width="138.5" height="58.5" x=".5" y=".5" stroke="none" clip-path="url(#clipPath4)"/></g><g transform="translate(200,100)"><rect width="138.5" height="58.5" x=".5" y=".5" fill="none" clip-path="url(#clipPath4)"/><text x="28" y="34.719" stroke="none" clip-path="url(#clipPath4)" font-family="sans-serif" font-size="14" font-weight="bold" xml:space="preserve">GameEntity</text></g><g stroke-dasharray="8 5" stroke-linecap="butt" stroke-miterlimit="5"><path fill="none" d="M69.5 10.5 L10.5 10.5" clip-path="url(#clipPath5)" transform="translate(360,230)"/><path fill="none" stroke-dasharray="none" stroke-linecap="square" stroke-miterlimit="10" d="M58.7417 4 L70 10.5 L58.7417 17" clip-path="url(#clipPath5)" transform="translate(360,230)"/></g><g stroke-dasharray="8 5" stroke-linecap="butt" stroke-miterlimit="5"><path fill="none" d="M59.5 10.5 L10.5 10.5" clip-path="url(#clipPath6)" transform="translate(330,120)"/><path fill="none" stroke-dasharray="none" stroke-linecap="square" stroke-miterlimit="10" d="M48.7417 4 L60 10.5 L48.7417 17" clip-path="url(#clipPath6)" transform="translate(330,120)"/></g><g stroke-dasharray="8 5" stroke-linecap="butt" stroke-miterlimit="5"><path fill="none" d="M10.5 59.5 L10.5 10.5" clip-path="url(#clipPath7)" transform="translate(270,150)"/><path fill="none" stroke-dasharray="none" stroke-linecap="square" stroke-miterlimit="10" d="M17 48.7417 L10.5 60 L4 48.7417" clip-path="url(#clipPath7)" transform="translate(270,150)"/><path fill="none" stroke-dasharray="none" stroke-linecap="square" stroke-miterlimit="10" d="M17 22.2583 L10.5 11 L4 22.2583" clip-path="url(#clipPath7)" transform="translate(270,150)"/></g></g></svg>