<svg xmlns="http://www.w3.org/2000/svg" xmlns:xlink="http://www.w3.org/1999/xlink" width="660" height="350" fill="#000" fill-opacity="1" stroke="#000" stroke-dasharray="none" stroke-dashoffset="0" stroke-linecap="square" stroke-linejoin="miter" stroke-miterlimit="10" stroke-opacity="1" stroke-width="1" color-interpolation="auto" color-rendering="auto" font-family="'Dialog'" font-size="12" font-style="normal" font-weight="normal" image-rendering="auto" shape-rendering="auto" text-rendering="auto" viewBox="450 310 660 350"><g><defs id="defs1"><clipPath id="clipPath1" clipPathUnits="userSpaceOnUse"><path d="M0 0 L2147483647 0 L2147483647 2147483647 L0 2147483647 L0 0 Z"/></clipPath><clipPath id="clipPath2" clipPathUnits="userSpaceOnUse"><path d="M0 0 L0 60 L100 60 L100 0 Z"/></clipPath><clipPath id="clipPath3" clipPathUnits="userSpaceOnUse"><path d="M0 0 L0 60 L110 60 L110 0 Z"/></clipPath><clipPath id="clipPath4" clipPathUnits="userSpaceOnUse"><path d="M0 0 L0 60 L130 60 L130 0 Z"/></clipPath><clipPath id="clipPath5" clipPathUnits="userSpaceOnUse"><path d="M0 0 L0 60 L120 60 L120 0 Z"/></clipPath><clipPath id="clipPath6" clipPathUnits="userSpaceOnUse"><path d="M0 0 L0 190 L250 190 L250 0 Z"/></clipPath><clipPath id="clipPath7" clipPathUnits="userSpaceOnUse"><path d="M0 0 L0 90 L30 90 L30 0 Z"/></clipPath><clipPath id="clipPath8" clipPathUnits="userSpaceOnUse"><path d="M0 0 L0 30 L90 30 L90 0 Z"/></clipPath><clipPath id="clipPath9" clipPathUnits="userSpaceOnUse"><path d="M0 0 L0 80 L30 80 L30 0 Z"/></clipPath></defs><g fill="#FFF" fill-opacity="0" stroke="#FFF" stroke-opacity="0" transform="translate(600,580)"><rect width="98.5" height="58.5" x=".5" y=".5" stroke="none" clip-path="url(#clipPath2)"/></g><g transform="translate(600,580)"><rect width="98.5" height="58.5" x=".5" y=".5" fill="none" clip-path="url(#clipPath2)"/><text x="15" y="34.719" stroke="none" clip-path="url(#clipPath2)" font-family="sans-serif" font-size="14" font-weight="bold" xml:space="preserve">TimeLoop</text></g><g fill="#FFF" fill-opacity="0" stroke="#FFF" stroke-opacity="0" transform="translate(470,580)"><rect width="98.5" height="58.5" x=".5" y=".5" stroke="none" clip-path="url(#clipPath2)"/></g><g transform="translate(470,580)"><rect width="98.5" height="58.5" x=".5" y=".5" fill="none" clip-path="url(#clipPath2)"/><text x="13" y="34.719" stroke="none" clip-path="url(#clipPath2)" font-family="sans-serif" font-size="14" font-weight="bold" xml:space="preserve">EventLoop</text></g><g fill="#FFF" fill-opacity="0" stroke="#FFF" stroke-opacity="0" transform="translate(960,500)"><rect width="108.5" height="58.5" x=".5" y=".5" stroke="none" clip-path="url(#clipPath3)"/></g><g transform="translate(960,500)"><rect width="108.5" height="58.5" x=".5" y=".5" fill="none" clip-path="url(#clipPath3)"/><text x="29" y="34.719" stroke="none" clip-path="url(#clipPath3)" font-family="sans-serif" font-size="14" font-weight="bold" xml:space="preserve">Terrain</text></g><g fill="#FFF" fill-opacity="0" stroke="#FFF" stroke-opacity="0" transform="translate(960,430)"><rect width="128.5" height="58.5" x=".5" y=".5" stroke="none" clip-path="url(#clipPath4)"/></g><g transform="translate(960,430)"><rect width="128.5" height="58.5" x=".5" y=".5" fill="none" clip-path="url(#clipPath4)"/><text x="23" y="34.719" stroke="none" clip-path="url(#clipPath4)" font-family="sans-serif" font-size="14" font-weight="bold" xml:space="preserve">GameEntity</text></g><g fill="#FFF" fill-opacity="0" stroke="#FFF" stroke-opacity="0" transform="translate(780,460)"><rect width="118.5" height="58.5" x=".5" y=".5" stroke="none" clip-path="url(#clipPath5)"/></g><g transform="translate(780,460)"><rect width="118.5" height="58.5" x=".5" y=".5" fill="none" clip-path="url(#clipPath5)"/><text x="21" y="34.719" stroke="none" clip-path="url(#clipPath5)" font-family="sans-serif" font-size="14" font-weight="bold" xml:space="preserve">GameState</text></g><g fill="#FFF" fill-opacity="0" stroke="#FFF" stroke-opacity="0" transform="translate(470,330)"><rect width="248.5" height="188.5" x=".5" y=".5" stroke="none" clip-path="url(#clipPath6)"/></g><g transform="translate(470,330)"><rect width="248.5" height="188.5" x=".5" y=".5" fill="none" clip-path="url(#clipPath6)"/><text x="66" y="18.359" stroke="none" clip-path="url(#clipPath6)" font-family="sans-serif" font-size="14" font-weight="bold" xml:space="preserve">GameSimulation</text><path fill="none" d="M1 24.3594 L249 24.3594" clip-path="url(#clipPath6)"/><text x="5" y="39.719" stroke="none" clip-path="url(#clipPath6)" font-family="sans-serif" font-size="14" xml:space="preserve">running: bool</text><text x="5" y="56.078" stroke="none" clip-path="url(#clipPath6)" font-family="sans-serif" font-size="14" xml:space="preserve">game: Game</text><path fill="none" d="M1 62.0781 L249 62.0781" clip-path="url(#clipPath6)"/><text x="5" y="77.438" stroke="none" clip-path="url(#clipPath6)" font-family="sans-serif" font-size="14" xml:space="preserve">set_modpacks(vector&lt;string&gt;): void</text><text x="5" y="93.797" stroke="none" clip-path="url(#clipPath6)" font-family="sans-serif" font-size="14" xml:space="preserve">init_event_handlers(): void</text><text x="5" y="110.156" stroke="none" clip-path="url(#clipPath6)" font-family="sans-serif" font-size="14" xml:space="preserve">run(): void</text><text x="5" y="126.516" stroke="none" clip-path="url(#clipPath6)" font-family="sans-serif" font-size="14" xml:space="preserve">start(): void</text><text x="5" y="142.875" stroke="none" clip-path="url(#clipPath6)" font-family="sans-serif" font-size="14" xml:space="preserve">stop(): void</text></g><g fill="#FFF" fill-opacity="0" stroke="#FFF" stroke-opacity="0" transform="translate(780,350)"><rect width="98.5" height="58.5" x=".5" y=".5" stroke="none" clip-path="url(#clipPath2)"/></g><g transform="translate(780,350)"><rect width="98.5" height="58.5" x=".5" y=".5" fill="none" clip-path="url(#clipPath2)"/><text x="29" y="34.719" stroke="none" clip-path="url(#clipPath2)" font-family="sans-serif" font-size="14" font-weight="bold" xml:space="preserve">Game</text></g><g stroke-dasharray="8 5" stroke-linecap="butt" stroke-miterlimit="5"><path fill="none" d="M10.5 69.5 L10.5 10.5" clip-path="url(#clipPath7)" transform="translate(510,510)"/><path fill="none" stroke-dasharray="none" stroke-linecap="square" stroke-miterlimit="10" d="M17 58.7417 L10.5 70 L4 58.7417" clip-path="url(#clipPath7)" transform="translate(510,510)"/></g><g stroke-dasharray="8 5" stroke-linecap="butt" stroke-miterlimit="5"><path fill="none" d="M10.5 69.5 L10.5 10.5" clip-path="url(#clipPath7)" transform="translate(640,510)"/><path fill="none" stroke-dasharray="none" stroke-linecap="square" stroke-miterlimit="10" d="M17 58.7417 L10.5 70 L4 58.7417" clip-path="url(#clipPath7)" transform="translate(640,510)"/></g><g stroke-dasharray="8 5" stroke-linecap="butt" stroke-miterlimit="5"><path fill="none" d="M69.5 10.5 L10.5 10.5" clip-path="url(#clipPath8)" transform="translate(710,370)"/><path fill="none" stroke-dasharray="none" stroke-linecap="square" stroke-miterlimit="10" d="M58.7417 4 L70 10.5 L58.7417 17" clip-path="url(#clipPath8)" transform="translate(710,370)"/></g><g stroke-dasharray="8 5" stroke-linecap="butt" stroke-miterlimit="5"><path fill="none" d="M10.5 59.5 L10.5 10.5" clip-path="url(#clipPath9)" transform="translate(830,400)"/><path fill="none" stroke-dasharray="none" stroke-linecap="square" stroke-miterlimit="10" d="M17 48.7417 L10.5 60 L4 48.7417" clip-path="url(#clipPath9)" transform="translate(830,400)"/></g><g stroke-dasharray="8 5" stroke-linecap="butt" stroke-miterlimit="5"><path fill="none" d="M69.5 10.5 L10.5 10.5" clip-path="url(#clipPath8)" transform="translate(890,500)"/><path fill="none" stroke-dasharray="none" stroke-linecap="square" stroke-miterlimit="10" d="M58.7417 4 L70 10.5 L58.7417 17" clip-path="url(#clipPath8)" transform="translate(890,500)"/></g><g stroke-dasharray="8 5" stroke-linecap="butt" stroke-miterlimit="5"><path fill="none" d="M69.5 10.5 L10.5 10.5" clip-path="url(#clipPath8)" transform="translate(890,460)"/><path fill="none" stroke-dasharray="none" stroke-linecap="square" stroke-miterlimit="10" d="M58.7417 4 L70 10.5 L58.7417 17" clip-path="url(#clipPath8)" transform="translate(890,460)"/></g></g></svg>