<svg xmlns="http://www.w3.org/2000/svg" xmlns:xlink="http://www.w3.org/1999/xlink" width="680" height="470" fill="#000" fill-opacity="1" stroke="#000" stroke-dasharray="none" stroke-dashoffset="0" stroke-linecap="square" stroke-linejoin="miter" stroke-miterlimit="10" stroke-opacity="1" stroke-width="1" color-interpolation="auto" color-rendering="auto" font-family="'Dialog'" font-size="12" font-style="normal" font-weight="normal" image-rendering="auto" shape-rendering="auto" text-rendering="auto" viewBox="350 170 680 470"><g><defs id="defs1"><clipPath id="clipPath1" clipPathUnits="userSpaceOnUse"><path d="M0 0 L2147483647 0 L2147483647 2147483647 L0 2147483647 L0 0 Z"/></clipPath><clipPath id="clipPath2" clipPathUnits="userSpaceOnUse"><path d="M0 0 L0 60 L130 60 L130 0 Z"/></clipPath><clipPath id="clipPath3" clipPathUnits="userSpaceOnUse"><path d="M0 0 L0 60 L100 60 L100 0 Z"/></clipPath><clipPath id="clipPath4" clipPathUnits="userSpaceOnUse"><path d="M0 0 L0 80 L30 80 L30 0 Z"/></clipPath><clipPath id="clipPath5" clipPathUnits="userSpaceOnUse"><path d="M0 0 L0 30 L160 30 L160 0 Z"/></clipPath><clipPath id="clipPath6" clipPathUnits="userSpaceOnUse"><path d="M0 0 L0 120 L90 120 L90 0 Z"/></clipPath><clipPath id="clipPath7" clipPathUnits="userSpaceOnUse"><path d="M0 0 L0 30 L200 30 L200 0 Z"/></clipPath><clipPath id="clipPath8" clipPathUnits="userSpaceOnUse"><path d="M0 0 L0 60 L30 60 L30 0 Z"/></clipPath><clipPath id="clipPath9" clipPathUnits="userSpaceOnUse"><path d="M0 0 L0 140 L190 140 L190 0 Z"/></clipPath><clipPath id="clipPath10" clipPathUnits="userSpaceOnUse"><path d="M0 0 L0 200 L90 200 L90 0 Z"/></clipPath></defs><g fill="#FFF" fill-opacity="0" stroke="#FFF" stroke-opacity="0" transform="translate(560,560)"><rect width="128.5" height="58.5" x=".5" y=".5" stroke="none" clip-path="url(#clipPath2)"/></g><g transform="translate(560,560)"><rect width="128.5" height="58.5" x=".5" y=".5" fill="none" clip-path="url(#clipPath2)"/><text x="25" y="34.219" stroke="none" clip-path="url(#clipPath2)" font-family="sans-serif" font-size="14" font-weight="bold" xml:space="preserve">Controller</text></g><g fill="#FFF" fill-opacity="0" stroke="#FFF" stroke-opacity="0" transform="translate(670,330)"><rect width="128.5" height="58.5" x=".5" y=".5" stroke="none" clip-path="url(#clipPath2)"/></g><g transform="translate(670,330)"><rect width="128.5" height="58.5" x=".5" y=".5" fill="none" clip-path="url(#clipPath2)"/><text x="9" y="34.219" stroke="none" clip-path="url(#clipPath2)" font-family="sans-serif" font-size="14" font-weight="bold" xml:space="preserve">InputManager</text></g><g fill="#FFF" fill-opacity="0" stroke="#FFF" stroke-opacity="0" transform="translate(370,330)"><rect width="128.5" height="58.5" x=".5" y=".5" stroke="none" clip-path="url(#clipPath2)"/></g><g transform="translate(370,330)"><rect width="128.5" height="58.5" x=".5" y=".5" fill="none" clip-path="url(#clipPath2)"/><text x="26" y="34.219" stroke="none" clip-path="url(#clipPath2)" font-family="sans-serif" font-size="14" font-weight="bold" xml:space="preserve">Presenter</text></g><g fill="#FFF" fill-opacity="0" stroke="#FFF" stroke-opacity="0" transform="translate(820,560)"><rect width="128.5" height="58.5" x=".5" y=".5" stroke="none" clip-path="url(#clipPath2)"/></g><g transform="translate(820,560)"><rect width="128.5" height="58.5" x=".5" y=".5" fill="none" clip-path="url(#clipPath2)"/><text x="3" y="34.219" stroke="none" clip-path="url(#clipPath2)" font-family="sans-serif" font-size="14" font-weight="bold" xml:space="preserve">BindingContext</text></g><g fill="#FFF" fill-opacity="0" stroke="#FFF" stroke-opacity="0" transform="translate(670,240)"><rect width="128.5" height="58.5" x=".5" y=".5" stroke="none" clip-path="url(#clipPath2)"/></g><g transform="translate(670,240)"><rect width="128.5" height="58.5" x=".5" y=".5" fill="none" clip-path="url(#clipPath2)"/><text x="42" y="34.219" stroke="none" clip-path="url(#clipPath2)" font-family="sans-serif" font-size="14" font-weight="bold" xml:space="preserve">Event</text></g><g fill="#FFF" fill-opacity="0" stroke="#FFF" stroke-opacity="0" transform="translate(910,190)"><rect width="98.5" height="58.5" x=".5" y=".5" stroke="none" clip-path="url(#clipPath3)"/></g><g transform="translate(910,190)"><rect width="98.5" height="58.5" x=".5" y=".5" fill="none" clip-path="url(#clipPath3)"/><text x="35" y="34.219" stroke="none" clip-path="url(#clipPath3)" font-family="sans-serif" font-size="14" font-weight="bold" xml:space="preserve">GUI</text></g><g fill="#FFF" fill-opacity="0" stroke="#FFF" stroke-opacity="0" transform="translate(820,450)"><rect width="128.5" height="58.5" x=".5" y=".5" stroke="none" clip-path="url(#clipPath2)"/></g><g transform="translate(820,450)"><rect width="128.5" height="58.5" x=".5" y=".5" fill="none" clip-path="url(#clipPath2)"/><text x="13" y="34.219" stroke="none" clip-path="url(#clipPath2)" font-family="sans-serif" font-size="14" font-weight="bold" xml:space="preserve">InputContext</text></g><g stroke-dasharray="8 5" stroke-linecap="butt" stroke-miterlimit="5"><path fill="none" d="M10.5 60.5 L10.5 10.5" clip-path="url(#clipPath4)" transform="translate(870,500)"/><path fill="none" stroke-dasharray="none" stroke-linecap="square" stroke-miterlimit="10" d="M17 49.2417 L10.5 60.5 L4 49.2417" clip-path="url(#clipPath4)" transform="translate(870,500)"/></g><g stroke-dasharray="8 5" stroke-linecap="butt" stroke-miterlimit="5"><path fill="none" d="M140.5 10.5 L10.5 10.5" clip-path="url(#clipPath5)" transform="translate(680,580)"/><path fill="none" stroke-dasharray="none" stroke-linecap="square" stroke-miterlimit="10" d="M129.2417 4 L140.5 10.5 L129.2417 17" clip-path="url(#clipPath5)" transform="translate(680,580)"/></g><g stroke-dasharray="8 5" stroke-linecap="butt" stroke-miterlimit="5"><path fill="none" d="M70.5 100.5 L10.5 100.5" clip-path="url(#clipPath6)" transform="translate(750,380)"/><path fill="none" d="M10.5 100.5 L10.5 10.5" clip-path="url(#clipPath6)" transform="translate(750,380)"/><path fill="none" stroke-dasharray="none" stroke-linecap="square" stroke-miterlimit="10" d="M59.2417 94 L70.5 100.5 L59.2417 107" clip-path="url(#clipPath6)" transform="translate(750,380)"/></g><g stroke-dasharray="8 5" stroke-linecap="butt" stroke-miterlimit="5"><path fill="none" d="M180.5 10.5 L10.5 10.5" clip-path="url(#clipPath7)" transform="translate(490,350)"/><path fill="none" stroke-dasharray="none" stroke-linecap="square" stroke-miterlimit="10" d="M169.2417 4 L180.5 10.5 L169.2417 17" clip-path="url(#clipPath7)" transform="translate(490,350)"/></g><g stroke-dasharray="8 5" stroke-linecap="butt" stroke-miterlimit="5"><path fill="none" d="M10.5 10.5 L10.5 40.5" clip-path="url(#clipPath8)" transform="translate(720,290)"/><path fill="none" stroke-dasharray="none" stroke-linecap="square" stroke-miterlimit="10" d="M4 21.7583 L10.5 10.5 L17 21.7583" clip-path="url(#clipPath8)" transform="translate(720,290)"/></g><g stroke-dasharray="8 5" stroke-linecap="butt" stroke-miterlimit="5"><path fill="none" d="M170.5 10.5 L170.5 120.5" clip-path="url(#clipPath9)" transform="translate(790,240)"/><path fill="none" d="M170.5 120.5 L10.5 120.5" clip-path="url(#clipPath9)" transform="translate(790,240)"/><path fill="none" stroke-dasharray="none" stroke-linecap="square" stroke-miterlimit="10" d="M164 21.7583 L170.5 10.5 L177 21.7583" clip-path="url(#clipPath9)" transform="translate(790,240)"/></g><g stroke-dasharray="8 5" stroke-linecap="butt" stroke-miterlimit="5"><path fill="none" d="M10.5 180.5 L10.5 90.5" clip-path="url(#clipPath10)" transform="translate(640,380)"/><path fill="none" d="M10.5 90.5 L70.5 10.5" clip-path="url(#clipPath10)" transform="translate(640,380)"/><path fill="none" stroke-dasharray="none" stroke-linecap="square" stroke-miterlimit="10" d="M17 169.2417 L10.5 180.5 L4 169.2417" clip-path="url(#clipPath10)" transform="translate(640,380)"/></g></g></svg>