<svg xmlns="http://www.w3.org/2000/svg" xmlns:xlink="http://www.w3.org/1999/xlink" width="780" height="630" fill="#000" fill-opacity="1" stroke="#000" stroke-dasharray="none" stroke-dashoffset="0" stroke-linecap="square" stroke-linejoin="miter" stroke-miterlimit="10" stroke-opacity="1" stroke-width="1" color-interpolation="auto" color-rendering="auto" font-family="'Dialog'" font-size="12" font-style="normal" font-weight="normal" image-rendering="auto" shape-rendering="auto" text-rendering="auto" viewBox="420 120 780 630"><g><defs id="defs1"><clipPath id="clipPath1" clipPathUnits="userSpaceOnUse"><path d="M0 0 L2147483647 0 L2147483647 2147483647 L0 2147483647 L0 0 Z"/></clipPath><clipPath id="clipPath2" clipPathUnits="userSpaceOnUse"><path d="M0 0 L0 30 L120 30 L120 0 Z"/></clipPath><clipPath id="clipPath3" clipPathUnits="userSpaceOnUse"><path d="M0 0 L0 50 L120 50 L120 0 Z"/></clipPath><clipPath id="clipPath4" clipPathUnits="userSpaceOnUse"><path d="M0 0 L0 30 L100 30 L100 0 Z"/></clipPath><clipPath id="clipPath5" clipPathUnits="userSpaceOnUse"><path d="M0 0 L0 70 L150 70 L150 0 Z"/></clipPath><clipPath id="clipPath6" clipPathUnits="userSpaceOnUse"><path d="M0 0 L0 60 L150 60 L150 0 Z"/></clipPath><clipPath id="clipPath7" clipPathUnits="userSpaceOnUse"><path d="M0 0 L0 60 L130 60 L130 0 Z"/></clipPath><clipPath id="clipPath8" clipPathUnits="userSpaceOnUse"><path d="M0 0 L0 200 L100 200 L100 0 Z"/></clipPath><clipPath id="clipPath9" clipPathUnits="userSpaceOnUse"><path d="M0 0 L0 140 L160 140 L160 0 Z"/></clipPath><clipPath id="clipPath10" clipPathUnits="userSpaceOnUse"><path d="M0 0 L0 130 L230 130 L230 0 Z"/></clipPath><clipPath id="clipPath11" clipPathUnits="userSpaceOnUse"><path d="M0 0 L0 140 L190 140 L190 0 Z"/></clipPath><clipPath id="clipPath12" clipPathUnits="userSpaceOnUse"><path d="M0 0 L0 230 L70 230 L70 0 Z"/></clipPath></defs><g font-family="sans-serif" font-size="14"><text x="5" y="18.109" stroke="none" clip-path="url(#clipPath2)" transform="translate(640,610)" xml:space="preserve">event::Event</text></g><g font-family="sans-serif" font-size="14" font-style="italic"><text x="5" y="18.109" stroke="none" clip-path="url(#clipPath3)" transform="translate(650,370)" xml:space="preserve">context</text><text x="5" y="34.219" stroke="none" clip-path="url(#clipPath3)" transform="translate(650,370)" xml:space="preserve">switch?</text></g><g font-family="sans-serif" font-size="14"><text x="5" y="18.109" stroke="none" clip-path="url(#clipPath2)" transform="translate(820,430)" xml:space="preserve">input::Event</text></g><g font-family="sans-serif" font-size="14"><text x="5" y="18.109" stroke="none" clip-path="url(#clipPath4)" transform="translate(1000,300)" xml:space="preserve">QEvent</text></g><g font-family="sans-serif" font-size="14"><text x="5" y="18.109" stroke="none" clip-path="url(#clipPath4)" transform="translate(820,140)" xml:space="preserve">QEvent</text></g><g font-family="sans-serif" font-size="14"><text x="5" y="18.109" stroke="none" clip-path="url(#clipPath4)" transform="translate(590,300)" xml:space="preserve">QEvent</text></g><g font-family="sans-serif" font-size="20" font-weight="bold"><text x="5" y="23.734" stroke="none" clip-path="url(#clipPath5)" transform="translate(530,150)" xml:space="preserve">Presenter</text></g><g font-family="sans-serif" font-size="20" font-weight="bold"><text x="5" y="23.734" stroke="none" clip-path="url(#clipPath5)" transform="translate(440,660)" xml:space="preserve">Gamestate</text></g><g font-family="sans-serif" font-size="20" font-weight="bold"><text x="5" y="23.734" stroke="none" clip-path="url(#clipPath6)" transform="translate(1030,150)" xml:space="preserve">GUI</text></g><g fill="#FFF" fill-opacity="0" stroke="#FFF" stroke-opacity="0" transform="translate(650,500)"><rect width="128.5" height="58.5" x=".5" y=".5" stroke="none" clip-path="url(#clipPath7)"/></g><g transform="translate(650,500)"><rect width="128.5" height="58.5" x=".5" y=".5" fill="none" clip-path="url(#clipPath7)"/><text x="25" y="34.219" stroke="none" clip-path="url(#clipPath7)" font-family="sans-serif" font-size="14" font-weight="bold" xml:space="preserve">Controller</text></g><g fill="#FFF" fill-opacity="0" stroke="#FFF" stroke-opacity="0" transform="translate(760,270)"><rect width="128.5" height="58.5" x=".5" y=".5" stroke="none" clip-path="url(#clipPath7)"/></g><g transform="translate(760,270)"><rect width="128.5" height="58.5" x=".5" y=".5" fill="none" clip-path="url(#clipPath7)"/><text x="9" y="34.219" stroke="none" clip-path="url(#clipPath7)" font-family="sans-serif" font-size="14" font-weight="bold" xml:space="preserve">InputManager</text></g><g><path fill="none" d="M80.5 10.5 L10.5 70.5" clip-path="url(#clipPath8)" transform="translate(700,320)"/><path fill="none" d="M10.5 70.5 L10.5 180.5" clip-path="url(#clipPath8)" transform="translate(700,320)"/><path fill="none" d="M67.7219 12.8917 L80.5 10.5 L76.1822 22.762" clip-path="url(#clipPath8)" transform="translate(700,320)"/></g><g><path fill="none" d="M10.5 120.5 L140.5 10.5" clip-path="url(#clipPath9)" transform="translate(570,550)"/><path fill="none" d="M23.2931 118.1898 L10.5 120.5 L14.8958 108.2658" clip-path="url(#clipPath9)" transform="translate(570,550)"/></g><g><path fill="none" d="M10.5 110.5 L10.5 10.5" clip-path="url(#clipPath10)" transform="translate(810,160)"/><path fill="none" d="M10.5 10.5 L210.5 10.5" clip-path="url(#clipPath10)" transform="translate(810,160)"/><path fill="none" d="M17 99.2417 L10.5 110.5 L4 99.2417" clip-path="url(#clipPath10)" transform="translate(810,160)"/></g><g><path fill="none" d="M170.5 10.5 L170.5 120.5" clip-path="url(#clipPath11)" transform="translate(880,180)"/><path fill="none" d="M170.5 120.5 L10.5 120.5" clip-path="url(#clipPath11)" transform="translate(880,180)"/><path fill="none" d="M164 21.7583 L170.5 10.5 L177 21.7583" clip-path="url(#clipPath11)" transform="translate(880,180)"/></g><g><path fill="none" d="M170.5 120.5 L10.5 120.5" clip-path="url(#clipPath11)" transform="translate(590,180)"/><path fill="none" d="M10.5 120.5 L10.5 10.5" clip-path="url(#clipPath11)" transform="translate(590,180)"/><path fill="none" d="M159.2417 114 L170.5 120.5 L159.2417 127" clip-path="url(#clipPath11)" transform="translate(590,180)"/></g><g><path fill="none" d="M10.5 210.5 L50.5 210.5" clip-path="url(#clipPath12)" transform="translate(770,320)"/><path fill="none" d="M50.5 210.5 L50.5 10.5" clip-path="url(#clipPath12)" transform="translate(770,320)"/><path fill="none" d="M21.7583 217 L10.5 210.5 L21.7583 204" clip-path="url(#clipPath12)" transform="translate(770,320)"/></g></g></svg>