<svg xmlns="http://www.w3.org/2000/svg" xmlns:xlink="http://www.w3.org/1999/xlink" width="750" height="360" fill="#000" fill-opacity="1" stroke="#000" stroke-dasharray="none" stroke-dashoffset="0" stroke-linecap="square" stroke-linejoin="miter" stroke-miterlimit="10" stroke-opacity="1" stroke-width="1" color-interpolation="auto" color-rendering="auto" font-family="'Dialog'" font-size="12" font-style="normal" font-weight="normal" image-rendering="auto" shape-rendering="auto" text-rendering="auto" viewBox="260 130 750 360"><g><defs id="defs1"><clipPath id="clipPath1" clipPathUnits="userSpaceOnUse"><path d="M0 0 L2147483647 0 L2147483647 2147483647 L0 2147483647 L0 0 Z"/></clipPath><clipPath id="clipPath2" clipPathUnits="userSpaceOnUse"><path d="M0 0 L0 60 L130 60 L130 0 Z"/></clipPath><clipPath id="clipPath3" clipPathUnits="userSpaceOnUse"><path d="M0 0 L0 60 L110 60 L110 0 Z"/></clipPath><clipPath id="clipPath4" clipPathUnits="userSpaceOnUse"><path d="M0 0 L0 60 L100 60 L100 0 Z"/></clipPath><clipPath id="clipPath5" clipPathUnits="userSpaceOnUse"><path d="M0 0 L0 60 L170 60 L170 0 Z"/></clipPath><clipPath id="clipPath6" clipPathUnits="userSpaceOnUse"><path d="M0 0 L0 60 L120 60 L120 0 Z"/></clipPath><clipPath id="clipPath7" clipPathUnits="userSpaceOnUse"><path d="M0 0 L0 30 L90 30 L90 0 Z"/></clipPath><clipPath id="clipPath8" clipPathUnits="userSpaceOnUse"><path d="M0 0 L0 30 L180 30 L180 0 Z"/></clipPath><clipPath id="clipPath9" clipPathUnits="userSpaceOnUse"><path d="M0 0 L0 100 L30 100 L30 0 Z"/></clipPath><clipPath id="clipPath10" clipPathUnits="userSpaceOnUse"><path d="M0 0 L0 130 L60 130 L60 0 Z"/></clipPath><clipPath id="clipPath11" clipPathUnits="userSpaceOnUse"><path d="M0 0 L0 230 L30 230 L30 0 Z"/></clipPath></defs><g fill="#0F0" fill-opacity=".49" stroke="#0F0" stroke-opacity=".49" transform="translate(860,410)"><rect width="128.5" height="58.5" x=".5" y=".5" stroke="none" clip-path="url(#clipPath2)"/></g><g transform="translate(860,410)"><rect width="128.5" height="58.5" x=".5" y=".5" fill="none" clip-path="url(#clipPath2)"/><text x="12" y="34.719" stroke="none" clip-path="url(#clipPath2)" font-family="sans-serif" font-size="14" font-weight="bold" xml:space="preserve">UnorderedMap</text></g><g fill="#0F0" fill-opacity=".49" stroke="#0F0" stroke-opacity=".49" transform="translate(720,410)"><rect width="108.5" height="58.5" x=".5" y=".5" stroke="none" clip-path="url(#clipPath3)"/></g><g transform="translate(720,410)"><rect width="108.5" height="58.5" x=".5" y=".5" fill="none" clip-path="url(#clipPath3)"/><text x="31" y="34.719" stroke="none" clip-path="url(#clipPath3)" font-family="sans-serif" font-size="14" font-weight="bold" xml:space="preserve">Queue</text></g><g fill="#FFF" fill-opacity="0" stroke="#FFF" stroke-opacity="0" transform="translate(870,150)"><rect width="98.5" height="58.5" x=".5" y=".5" stroke="none" clip-path="url(#clipPath4)"/></g><g transform="translate(870,150)"><rect width="98.5" height="58.5" x=".5" y=".5" fill="none" clip-path="url(#clipPath4)"/><text x="16" y="34.719" stroke="none" clip-path="url(#clipPath4)" font-family="sans-serif" font-size="14" font-weight="bold" xml:space="preserve">Keyframe</text></g><g fill="#FFF" fill-opacity="0" stroke="#FFF" stroke-opacity="0" transform="translate(640,150)"><rect width="168.5" height="58.5" x=".5" y=".5" stroke="none" clip-path="url(#clipPath5)"/></g><g transform="translate(640,150)"><rect width="168.5" height="58.5" x=".5" y=".5" fill="none" clip-path="url(#clipPath5)"/><text x="16" y="34.719" stroke="none" clip-path="url(#clipPath5)" font-family="sans-serif" font-size="14" font-weight="bold" xml:space="preserve">KeyframeContainer</text></g><g fill="#0F0" fill-opacity=".49" stroke="#0F0" stroke-opacity=".49" transform="translate(580,410)"><rect width="108.5" height="58.5" x=".5" y=".5" stroke="none" clip-path="url(#clipPath3)"/></g><g transform="translate(580,410)"><rect width="108.5" height="58.5" x=".5" y=".5" fill="none" clip-path="url(#clipPath3)"/><text x="15" y="34.719" stroke="none" clip-path="url(#clipPath3)" font-family="sans-serif" font-size="14" font-weight="bold" xml:space="preserve">Segmented</text></g><g fill="#0F0" fill-opacity=".49" stroke="#0F0" stroke-opacity=".49" transform="translate(430,410)"><rect width="118.5" height="58.5" x=".5" y=".5" stroke="none" clip-path="url(#clipPath6)"/></g><g transform="translate(430,410)"><rect width="118.5" height="58.5" x=".5" y=".5" fill="none" clip-path="url(#clipPath6)"/><text x="19" y="34.719" stroke="none" clip-path="url(#clipPath6)" font-family="sans-serif" font-size="14" font-weight="bold" xml:space="preserve">Continuous</text></g><g fill="#FFAFAF" fill-opacity=".49" stroke="#FFAFAF" stroke-opacity=".49" transform="translate(500,280)"><rect width="118.5" height="58.5" x=".5" y=".5" stroke="none" clip-path="url(#clipPath6)"/></g><g transform="translate(500,280)"><rect width="118.5" height="58.5" x=".5" y=".5" fill="none" clip-path="url(#clipPath6)"/><text x="23" y="18.359" stroke="none" clip-path="url(#clipPath6)" font-family="sans-serif" font-size="14" xml:space="preserve">«interface»</text><text x="15" y="34.719" stroke="none" clip-path="url(#clipPath6)" font-family="sans-serif" font-size="14" font-weight="bold" xml:space="preserve">Interpolated</text></g><g fill="#0F0" fill-opacity=".49" stroke="#0F0" stroke-opacity=".49" transform="translate(280,410)"><rect width="118.5" height="58.5" x=".5" y=".5" stroke="none" clip-path="url(#clipPath6)"/></g><g transform="translate(280,410)"><rect width="118.5" height="58.5" x=".5" y=".5" fill="none" clip-path="url(#clipPath6)"/><text x="31" y="34.719" stroke="none" clip-path="url(#clipPath6)" font-family="sans-serif" font-size="14" font-weight="bold" xml:space="preserve">Discrete</text></g><g fill="#FFAFAF" fill-opacity=".49" stroke="#FFAFAF" stroke-opacity=".49" transform="translate(360,150)"><rect width="128.5" height="58.5" x=".5" y=".5" stroke="none" clip-path="url(#clipPath2)"/></g><g transform="translate(360,150)"><rect width="128.5" height="58.5" x=".5" y=".5" fill="none" clip-path="url(#clipPath2)"/><text x="28" y="18.359" stroke="none" clip-path="url(#clipPath2)" font-family="sans-serif" font-size="14" xml:space="preserve">«interface»</text><text x="28" y="34.719" stroke="none" clip-path="url(#clipPath2)" font-family="sans-serif" font-size="14" font-weight="bold" xml:space="preserve">BaseCurve</text></g><g stroke-dasharray="8 5" stroke-linecap="butt" stroke-miterlimit="5"><path fill="none" d="M69.5 10.5 L10.5 10.5" clip-path="url(#clipPath7)" transform="translate(800,170)"/><path fill="none" stroke-dasharray="none" stroke-linecap="square" stroke-miterlimit="10" d="M58.7417 4 L70 10.5 L58.7417 17" clip-path="url(#clipPath7)" transform="translate(800,170)"/></g><g stroke-dasharray="8 5" stroke-linecap="butt" stroke-miterlimit="5"><path fill="none" d="M159.5 10.5 L10.5 10.5" clip-path="url(#clipPath8)" transform="translate(480,170)"/><path fill="none" stroke-dasharray="none" stroke-linecap="square" stroke-miterlimit="10" d="M148.7417 4 L160 10.5 L148.7417 17" clip-path="url(#clipPath8)" transform="translate(480,170)"/></g><g><path fill="none" d="M10.5 11.5 L10.5 80.5" clip-path="url(#clipPath9)" transform="translate(590,330)"/><path fill="#fff" stroke="none" d="M4 22.2583 L10.5 11 L17 22.2583 Z" clip-path="url(#clipPath9)" transform="translate(590,330)"/><path fill="none" d="M4 22.2583 L10.5 11 L17 22.2583 Z" clip-path="url(#clipPath9)" transform="translate(590,330)"/></g><g><path fill="none" d="M10.5 11.5 L10.5 80.5" clip-path="url(#clipPath9)" transform="translate(520,330)"/><path fill="#fff" stroke="none" d="M4 22.2583 L10.5 11 L17 22.2583 Z" clip-path="url(#clipPath9)" transform="translate(520,330)"/><path fill="none" d="M4 22.2583 L10.5 11 L17 22.2583 Z" clip-path="url(#clipPath9)" transform="translate(520,330)"/></g><g><path fill="none" d="M10.5 11.5 L10.5 110.5" clip-path="url(#clipPath10)" transform="translate(460,200)"/><path fill="none" d="M10.5 110.5 L40.5 110.5" clip-path="url(#clipPath10)" transform="translate(460,200)"/><path fill="#fff" stroke="none" d="M4 22.2583 L10.5 11 L17 22.2583 Z" clip-path="url(#clipPath10)" transform="translate(460,200)"/><path fill="none" d="M4 22.2583 L10.5 11 L17 22.2583 Z" clip-path="url(#clipPath10)" transform="translate(460,200)"/></g><g><path fill="none" d="M10.5 11.5 L10.5 210.5" clip-path="url(#clipPath11)" transform="translate(360,200)"/><path fill="#fff" stroke="none" d="M4 22.2583 L10.5 11 L17 22.2583 Z" clip-path="url(#clipPath11)" transform="translate(360,200)"/><path fill="none" d="M4 22.2583 L10.5 11 L17 22.2583 Z" clip-path="url(#clipPath11)" transform="translate(360,200)"/></g></g></svg>