<svg xmlns="http://www.w3.org/2000/svg" xmlns:xlink="http://www.w3.org/1999/xlink" width="860" height="710" fill="#000" fill-opacity="1" stroke="#000" stroke-dasharray="none" stroke-dashoffset="0" stroke-linecap="square" stroke-linejoin="miter" stroke-miterlimit="10" stroke-opacity="1" stroke-width="1" color-interpolation="auto" color-rendering="auto" font-family="'Dialog'" font-size="12" font-style="normal" font-weight="normal" image-rendering="auto" shape-rendering="auto" text-rendering="auto" viewBox="320 560 860 710"><g><defs id="defs1"><clipPath id="clipPath1" clipPathUnits="userSpaceOnUse"><path d="M0 0 L2147483647 0 L2147483647 2147483647 L0 2147483647 L0 0 Z"/></clipPath><clipPath id="clipPath2" clipPathUnits="userSpaceOnUse"><path d="M0 0 L0 30 L120 30 L120 0 Z"/></clipPath><clipPath id="clipPath3" clipPathUnits="userSpaceOnUse"><path d="M0 0 L0 60 L130 60 L130 0 Z"/></clipPath><clipPath id="clipPath4" clipPathUnits="userSpaceOnUse"><path d="M0 0 L0 30 L130 30 L130 0 Z"/></clipPath><clipPath id="clipPath5" clipPathUnits="userSpaceOnUse"><path d="M0 0 L0 30 L100 30 L100 0 Z"/></clipPath><clipPath id="clipPath6" clipPathUnits="userSpaceOnUse"><path d="M0 0 L0 30 L150 30 L150 0 Z"/></clipPath><clipPath id="clipPath7" clipPathUnits="userSpaceOnUse"><path d="M0 0 L0 60 L90 60 L90 0 Z"/></clipPath><clipPath id="clipPath8" clipPathUnits="userSpaceOnUse"><path d="M0 0 L0 40 L70 40 L70 0 Z"/></clipPath><clipPath id="clipPath9" clipPathUnits="userSpaceOnUse"><path d="M0 0 L0 40 L130 40 L130 0 Z"/></clipPath><clipPath id="clipPath10" clipPathUnits="userSpaceOnUse"><path d="M0 0 L0 320 L130 320 L130 0 Z"/></clipPath><clipPath id="clipPath11" clipPathUnits="userSpaceOnUse"><path d="M0 0 L0 340 L150 340 L150 0 Z"/></clipPath><clipPath id="clipPath12" clipPathUnits="userSpaceOnUse"><path d="M0 0 L0 170 L30 170 L30 0 Z"/></clipPath><clipPath id="clipPath13" clipPathUnits="userSpaceOnUse"><path d="M0 0 L0 160 L260 160 L260 0 Z"/></clipPath><clipPath id="clipPath14" clipPathUnits="userSpaceOnUse"><path d="M0 0 L0 120 L100 120 L100 0 Z"/></clipPath><clipPath id="clipPath15" clipPathUnits="userSpaceOnUse"><path d="M0 0 L0 30 L220 30 L220 0 Z"/></clipPath><clipPath id="clipPath16" clipPathUnits="userSpaceOnUse"><path d="M0 0 L0 150 L100 150 L100 0 Z"/></clipPath><clipPath id="clipPath17" clipPathUnits="userSpaceOnUse"><path d="M0 0 L0 130 L100 130 L100 0 Z"/></clipPath><clipPath id="clipPath18" clipPathUnits="userSpaceOnUse"><path d="M0 0 L0 110 L80 110 L80 0 Z"/></clipPath><clipPath id="clipPath19" clipPathUnits="userSpaceOnUse"><path d="M0 0 L0 170 L170 170 L170 0 Z"/></clipPath><clipPath id="clipPath20" clipPathUnits="userSpaceOnUse"><path d="M0 0 L0 140 L30 140 L30 0 Z"/></clipPath><clipPath id="clipPath21" clipPathUnits="userSpaceOnUse"><path d="M0 0 L0 100 L140 100 L140 0 Z"/></clipPath><clipPath id="clipPath22" clipPathUnits="userSpaceOnUse"><path d="M0 0 L0 180 L30 180 L30 0 Z"/></clipPath><clipPath id="clipPath23" clipPathUnits="userSpaceOnUse"><path d="M0 0 L0 30 L550 30 L550 0 Z"/></clipPath><clipPath id="clipPath24" clipPathUnits="userSpaceOnUse"><path d="M0 0 L0 30 L330 30 L330 0 Z"/></clipPath><clipPath id="clipPath25" clipPathUnits="userSpaceOnUse"><path d="M0 0 L0 340 L30 340 L30 0 Z"/></clipPath><clipPath id="clipPath26" clipPathUnits="userSpaceOnUse"><path d="M0 0 L0 30 L200 30 L200 0 Z"/></clipPath><clipPath id="clipPath27" clipPathUnits="userSpaceOnUse"><path d="M0 0 L0 190 L30 190 L30 0 Z"/></clipPath><clipPath id="clipPath28" clipPathUnits="userSpaceOnUse"><path d="M0 0 L0 190 L250 190 L250 0 Z"/></clipPath><clipPath id="clipPath29" clipPathUnits="userSpaceOnUse"><path d="M0 0 L0 240 L30 240 L30 0 Z"/></clipPath><clipPath id="clipPath30" clipPathUnits="userSpaceOnUse"><path d="M0 0 L0 30 L300 30 L300 0 Z"/></clipPath><clipPath id="clipPath31" clipPathUnits="userSpaceOnUse"><path d="M0 0 L0 400 L30 400 L30 0 Z"/></clipPath><clipPath id="clipPath32" clipPathUnits="userSpaceOnUse"><path d="M0 0 L0 30 L520 30 L520 0 Z"/></clipPath></defs><g font-family="sans-serif"><text x="5" y="16.438" stroke="none" clip-path="url(#clipPath2)" transform="translate(580,980)" xml:space="preserve">Script events</text></g><g font-family="sans-serif"><text x="5" y="16.438" stroke="none" clip-path="url(#clipPath2)" transform="translate(580,1020)" xml:space="preserve">Event notifiers</text></g><g font-family="sans-serif"><text x="5" y="16.438" stroke="none" clip-path="url(#clipPath2)" transform="translate(640,1110)" xml:space="preserve">Client events</text></g><g font-family="sans-serif"><text x="5" y="16.438" stroke="none" clip-path="url(#clipPath2)" transform="translate(750,1110)" xml:space="preserve">Server events</text></g><g font-family="sans-serif"><text x="5" y="16.438" stroke="none" clip-path="url(#clipPath2)" transform="translate(850,1170)" xml:space="preserve">Client data</text></g><g font-family="sans-serif"><text x="5" y="16.438" stroke="none" clip-path="url(#clipPath2)" transform="translate(890,1220)" xml:space="preserve">Server updates</text></g><g fill="#FFF" fill-opacity="0" stroke="#FFF" stroke-opacity="0" transform="translate(440,980)"><rect width="128.5" height="58.5" x=".5" y=".5" stroke="none" clip-path="url(#clipPath3)"/></g><g transform="translate(440,980)"><rect width="128.5" height="58.5" x=".5" y=".5" fill="none" clip-path="url(#clipPath3)"/><text x="33" y="34.719" stroke="none" clip-path="url(#clipPath3)" font-family="sans-serif" font-size="14" font-weight="bold" xml:space="preserve">Scripting</text></g><g fill="#FFF" fill-opacity="0" stroke="#FFF" stroke-opacity="0" transform="translate(690,1180)"><rect width="128.5" height="58.5" x=".5" y=".5" stroke="none" clip-path="url(#clipPath3)"/></g><g transform="translate(690,1180)"><rect width="128.5" height="58.5" x=".5" y=".5" fill="none" clip-path="url(#clipPath3)"/><text x="23" y="34.719" stroke="none" clip-path="url(#clipPath3)" font-family="sans-serif" font-size="14" font-weight="bold" xml:space="preserve">Networking</text></g><g font-family="sans-serif"><text x="5" y="16.438" stroke="none" clip-path="url(#clipPath2)" transform="translate(920,710)" xml:space="preserve">Current time</text></g><g font-family="sans-serif"><text x="5" y="16.438" stroke="none" clip-path="url(#clipPath4)" transform="translate(660,770)" xml:space="preserve">Animation requests</text></g><g font-family="sans-serif"><text x="5" y="16.438" stroke="none" clip-path="url(#clipPath2)" transform="translate(960,1010)" xml:space="preserve">Current time</text></g><g font-family="sans-serif"><text x="5" y="16.438" stroke="none" clip-path="url(#clipPath2)" transform="translate(740,870)" xml:space="preserve">Scheduled events</text></g><g font-family="sans-serif"><text x="5" y="16.438" stroke="none" clip-path="url(#clipPath2)" transform="translate(1000,880)" xml:space="preserve">Current time</text></g><g font-family="sans-serif"><text x="5" y="16.438" stroke="none" clip-path="url(#clipPath2)" transform="translate(800,920)" xml:space="preserve">Entity updates</text></g><g font-family="sans-serif"><text x="5" y="16.438" stroke="none" clip-path="url(#clipPath5)" transform="translate(610,840)" xml:space="preserve">Input events</text></g><g font-family="sans-serif"><text x="5" y="16.438" stroke="none" clip-path="url(#clipPath5)" transform="translate(420,730)" xml:space="preserve">Mouse events</text></g><g font-family="sans-serif"><text x="5" y="16.438" stroke="none" clip-path="url(#clipPath6)" transform="translate(560,720)" xml:space="preserve">Key/Mouse events</text></g><g fill="#FFF" fill-opacity="0" stroke="#FFF" stroke-opacity="0" transform="translate(1000,700)"><rect width="88.5" height="58.5" x=".5" y=".5" stroke="none" clip-path="url(#clipPath7)"/></g><g transform="translate(1000,700)"><rect width="88.5" height="58.5" x=".5" y=".5" fill="none" clip-path="url(#clipPath7)"/><text x="26" y="34.719" stroke="none" clip-path="url(#clipPath7)" font-family="sans-serif" font-size="14" font-weight="bold" xml:space="preserve">Clock</text></g><g font-family="sans-serif" font-size="20" font-weight="bold"><text x="5" y="24.078" stroke="none" clip-path="url(#clipPath8)" transform="translate(1080,640)" xml:space="preserve">Time</text></g><g font-family="sans-serif" font-size="20" font-weight="bold"><text x="5" y="24.078" stroke="none" clip-path="url(#clipPath9)" transform="translate(350,590)" xml:space="preserve">Presenter</text></g><g fill="#FFF" fill-opacity="0" stroke="#FFF" stroke-opacity="0" transform="translate(850,850)"><rect width="128.5" height="58.5" x=".5" y=".5" stroke="none" clip-path="url(#clipPath3)"/></g><g transform="translate(850,850)"><rect width="128.5" height="58.5" x=".5" y=".5" fill="none" clip-path="url(#clipPath3)"/><text x="27" y="34.719" stroke="none" clip-path="url(#clipPath3)" font-family="sans-serif" font-size="14" font-weight="bold" xml:space="preserve">Simulation</text></g><g fill="#FFF" fill-opacity="0" stroke="#FFF" stroke-opacity="0" transform="translate(690,980)"><rect width="128.5" height="58.5" x=".5" y=".5" stroke="none" clip-path="url(#clipPath3)"/></g><g transform="translate(690,980)"><rect width="128.5" height="58.5" x=".5" y=".5" fill="none" clip-path="url(#clipPath3)"/><text x="28" y="34.719" stroke="none" clip-path="url(#clipPath3)" font-family="sans-serif" font-size="14" font-weight="bold" xml:space="preserve">EventLoop</text></g><g fill="#FFF" fill-opacity="0" stroke="#FFF" stroke-opacity="0" transform="translate(460,640)"><rect width="128.5" height="58.5" x=".5" y=".5" stroke="none" clip-path="url(#clipPath3)"/></g><g transform="translate(460,640)"><rect width="128.5" height="58.5" x=".5" y=".5" fill="none" clip-path="url(#clipPath3)"/><text x="51" y="34.719" stroke="none" clip-path="url(#clipPath3)" font-family="sans-serif" font-size="14" font-weight="bold" xml:space="preserve">GUI</text></g><g fill="#FFF" fill-opacity="0" stroke="#FFF" stroke-opacity="0" transform="translate(680,700)"><rect width="128.5" height="58.5" x=".5" y=".5" stroke="none" clip-path="url(#clipPath3)"/></g><g transform="translate(680,700)"><rect width="128.5" height="58.5" x=".5" y=".5" fill="none" clip-path="url(#clipPath3)"/><text x="32" y="34.719" stroke="none" clip-path="url(#clipPath3)" font-family="sans-serif" font-size="14" font-weight="bold" xml:space="preserve">Renderer</text></g><g fill="#FFF" fill-opacity="0" stroke="#FFF" stroke-opacity="0" transform="translate(460,810)"><rect width="128.5" height="58.5" x=".5" y=".5" stroke="none" clip-path="url(#clipPath3)"/></g><g transform="translate(460,810)"><rect width="128.5" height="58.5" x=".5" y=".5" fill="none" clip-path="url(#clipPath3)"/><text x="45" y="34.719" stroke="none" clip-path="url(#clipPath3)" font-family="sans-serif" font-size="14" font-weight="bold" xml:space="preserve">Input</text></g><g><path fill="none" d="M11.5 300.5 L110.5 300.5" clip-path="url(#clipPath10)" transform="translate(810,900)"/><path fill="none" d="M110.5 300.5 L110.5 10.5" clip-path="url(#clipPath10)" transform="translate(810,900)"/><path fill="none" d="M22.2583 307 L11 300.5 L22.2583 294" clip-path="url(#clipPath10)" transform="translate(810,900)"/></g><g><path fill="none" d="M130.5 11.5 L130.5 320.5" clip-path="url(#clipPath11)" transform="translate(810,900)"/><path fill="none" d="M130.5 320.5 L10.5 320.5" clip-path="url(#clipPath11)" transform="translate(810,900)"/><path fill="none" d="M124 22.2583 L130.5 11 L137 22.2583" clip-path="url(#clipPath11)" transform="translate(810,900)"/></g><g><path fill="none" d="M10.5 11.5 L10.5 150.5" clip-path="url(#clipPath12)" transform="translate(740,1030)"/><path fill="none" d="M4 22.2583 L10.5 11 L17 22.2583" clip-path="url(#clipPath12)" transform="translate(740,1030)"/></g><g><path fill="none" d="M10.5 149.5 L10.5 10.5" clip-path="url(#clipPath12)" transform="translate(710,1030)"/><path fill="none" d="M17 138.7417 L10.5 150 L4 138.7417" clip-path="url(#clipPath12)" transform="translate(710,1030)"/></g><g><path fill="none" d="M11.5 10.5 L130.5 10.5" clip-path="url(#clipPath6)" transform="translate(560,1010)"/><path fill="none" d="M22.2583 17 L11 10.5 L22.2583 4" clip-path="url(#clipPath6)" transform="translate(560,1010)"/></g><g><path fill="none" d="M129.5 10.5 L10.5 10.5" clip-path="url(#clipPath6)" transform="translate(560,990)"/><path fill="none" d="M118.7417 4 L130 10.5 L118.7417 17" clip-path="url(#clipPath6)" transform="translate(560,990)"/></g><g><path fill="none" d="M11.5 140.5 L240.5 140.5" clip-path="url(#clipPath13)" transform="translate(810,870)"/><path fill="none" d="M240.5 140.5 L240.5 10.5" clip-path="url(#clipPath13)" transform="translate(810,870)"/><path fill="none" d="M22.2583 147 L11 140.5 L22.2583 134" clip-path="url(#clipPath13)" transform="translate(810,870)"/></g><g><path fill="none" d="M10.5 99.5 L10.5 10.5" clip-path="url(#clipPath14)" transform="translate(770,880)"/><path fill="none" d="M10.5 10.5 L80.5 10.5" clip-path="url(#clipPath14)" transform="translate(770,880)"/><path fill="none" d="M17 88.7417 L10.5 100 L4 88.7417" clip-path="url(#clipPath14)" transform="translate(770,880)"/></g><g><path fill="none" d="M11.5 10.5 L200.5 10.5" clip-path="url(#clipPath15)" transform="translate(800,720)"/><path fill="none" d="M22.2583 17 L11 10.5 L22.2583 4" clip-path="url(#clipPath15)" transform="translate(800,720)"/></g><g><path fill="none" d="M11.5 130.5 L80.5 130.5" clip-path="url(#clipPath16)" transform="translate(970,750)"/><path fill="none" d="M80.5 130.5 L80.5 10.5" clip-path="url(#clipPath16)" transform="translate(970,750)"/><path fill="none" d="M22.2583 137 L11 130.5 L22.2583 124" clip-path="url(#clipPath16)" transform="translate(970,750)"/></g><g><path fill="none" d="M10.5 11.5 L10.5 110.5" clip-path="url(#clipPath17)" transform="translate(770,750)"/><path fill="none" d="M10.5 110.5 L80.5 110.5" clip-path="url(#clipPath17)" transform="translate(770,750)"/><path fill="none" d="M4 22.2583 L10.5 11 L17 22.2583" clip-path="url(#clipPath17)" transform="translate(770,750)"/></g><g><path fill="none" d="M59.5 10.5 L10.5 10.5" clip-path="url(#clipPath18)" transform="translate(790,890)"/><path fill="none" d="M10.5 10.5 L10.5 90.5" clip-path="url(#clipPath18)" transform="translate(790,890)"/><path fill="none" d="M48.7417 4 L60 10.5 L48.7417 17" clip-path="url(#clipPath18)" transform="translate(790,890)"/></g><g><path fill="none" d="M150.5 149.5 L150.5 10.5" clip-path="url(#clipPath19)" transform="translate(580,830)"/><path fill="none" d="M150.5 10.5 L10.5 10.5" clip-path="url(#clipPath19)" transform="translate(580,830)"/><path fill="none" d="M157 138.7417 L150.5 150 L144 138.7417" clip-path="url(#clipPath19)" transform="translate(580,830)"/></g><g><path fill="none" d="M10.5 11.5 L10.5 120.5" clip-path="url(#clipPath20)" transform="translate(510,690)"/><path fill="none" d="M4 22.2583 L10.5 11 L17 22.2583" clip-path="url(#clipPath20)" transform="translate(510,690)"/></g><g><path fill="none" d="M10.5 79.5 L10.5 10.5" clip-path="url(#clipPath21)" transform="translate(560,730)"/><path fill="none" d="M10.5 10.5 L120.5 10.5" clip-path="url(#clipPath21)" transform="translate(560,730)"/><path fill="none" d="M17 68.7417 L10.5 80 L4 68.7417" clip-path="url(#clipPath21)" transform="translate(560,730)"/></g><g stroke-dasharray="8 5" stroke-linecap="butt" stroke-miterlimit="5"><path fill="none" d="M10.5 10.5 L10.5 160.5" clip-path="url(#clipPath22)" transform="translate(610,950)"/></g><g stroke-dasharray="8 5" stroke-linecap="butt" stroke-miterlimit="5"><path fill="none" d="M530.5 10.5 L10.5 10.5" clip-path="url(#clipPath23)" transform="translate(610,1100)"/></g><g stroke-dasharray="8 5" stroke-linecap="butt" stroke-miterlimit="5"><path fill="none" d="M10.5 10.5 L310.5 10.5" clip-path="url(#clipPath24)" transform="translate(830,790)"/></g><g stroke-dasharray="8 5" stroke-linecap="butt" stroke-miterlimit="5"><path fill="none" d="M10.5 320.5 L10.5 10.5" clip-path="url(#clipPath25)" transform="translate(1130,790)"/></g><g stroke-dasharray="8 5" stroke-linecap="butt" stroke-miterlimit="5"><path fill="none" d="M180.5 10.5 L10.5 10.5" clip-path="url(#clipPath26)" transform="translate(960,790)"/></g><g stroke-dasharray="8 5" stroke-linecap="butt" stroke-miterlimit="5"><path fill="none" d="M10.5 170.5 L10.5 10.5" clip-path="url(#clipPath27)" transform="translate(1130,630)"/></g><g stroke-dasharray="8 5" stroke-linecap="butt" stroke-miterlimit="5"><path fill="none" d="M10.5 10.5 L310.5 10.5" clip-path="url(#clipPath24)" transform="translate(830,630)"/></g><g stroke-dasharray="8 5" stroke-linecap="butt" stroke-miterlimit="5"><path fill="none" d="M10.5 170.5 L230.5 10.5" clip-path="url(#clipPath28)" transform="translate(610,790)"/></g><g stroke-dasharray="8 5" stroke-linecap="butt" stroke-miterlimit="5"><path fill="none" d="M10.5 220.5 L10.5 10.5" clip-path="url(#clipPath29)" transform="translate(830,580)"/></g><g stroke-dasharray="8 5" stroke-linecap="butt" stroke-miterlimit="5"><path fill="none" d="M280.5 10.5 L10.5 10.5" clip-path="url(#clipPath30)" transform="translate(340,950)"/></g><g stroke-dasharray="8 5" stroke-linecap="butt" stroke-miterlimit="5"><path fill="none" d="M10.5 380.5 L10.5 10.5" clip-path="url(#clipPath31)" transform="translate(340,580)"/></g><g stroke-dasharray="8 5" stroke-linecap="butt" stroke-miterlimit="5"><path fill="none" d="M10.5 10.5 L500.5 10.5" clip-path="url(#clipPath32)" transform="translate(340,580)"/></g></g></svg>