<svg xmlns="http://www.w3.org/2000/svg" xmlns:xlink="http://www.w3.org/1999/xlink" width="540" height="320" fill="#000" fill-opacity="1" stroke="#000" stroke-dasharray="none" stroke-dashoffset="0" stroke-linecap="square" stroke-linejoin="miter" stroke-miterlimit="10" stroke-opacity="1" stroke-width="1" color-interpolation="auto" color-rendering="auto" font-family="'Dialog'" font-size="12" font-style="normal" font-weight="normal" image-rendering="auto" shape-rendering="auto" text-rendering="auto" viewBox="370 280 540 320"><g><defs id="defs1"><clipPath id="clipPath1" clipPathUnits="userSpaceOnUse"><path d="M0 0 L2147483647 0 L2147483647 2147483647 L0 2147483647 L0 0 Z"/></clipPath><clipPath id="clipPath2" clipPathUnits="userSpaceOnUse"><path d="M0 0 L0 60 L100 60 L100 0 Z"/></clipPath><clipPath id="clipPath3" clipPathUnits="userSpaceOnUse"><path d="M0 0 L0 60 L80 60 L80 0 Z"/></clipPath><clipPath id="clipPath4" clipPathUnits="userSpaceOnUse"><path d="M0 0 L0 60 L120 60 L120 0 Z"/></clipPath><clipPath id="clipPath5" clipPathUnits="userSpaceOnUse"><path d="M0 0 L0 90 L80 90 L80 0 Z"/></clipPath><clipPath id="clipPath6" clipPathUnits="userSpaceOnUse"><path d="M0 0 L0 130 L100 130 L100 0 Z"/></clipPath><clipPath id="clipPath7" clipPathUnits="userSpaceOnUse"><path d="M0 0 L0 90 L110 90 L110 0 Z"/></clipPath><clipPath id="clipPath8" clipPathUnits="userSpaceOnUse"><path d="M0 0 L0 190 L30 190 L30 0 Z"/></clipPath><clipPath id="clipPath9" clipPathUnits="userSpaceOnUse"><path d="M0 0 L0 100 L30 100 L30 0 Z"/></clipPath><clipPath id="clipPath10" clipPathUnits="userSpaceOnUse"><path d="M0 0 L0 130 L110 130 L110 0 Z"/></clipPath><clipPath id="clipPath11" clipPathUnits="userSpaceOnUse"><path d="M0 0 L0 30 L140 30 L140 0 Z"/></clipPath></defs><g fill="#FFF" fill-opacity="0" stroke="#FFF" stroke-opacity="0" transform="translate(790,520)"><rect width="98.5" height="58.5" x=".5" y=".5" stroke="none" clip-path="url(#clipPath2)"/></g><g transform="translate(790,520)"><rect width="98.5" height="58.5" x=".5" y=".5" fill="none" clip-path="url(#clipPath2)"/><text x="9" y="34.719" stroke="none" clip-path="url(#clipPath2)" font-family="sans-serif" font-size="14" font-weight="bold" xml:space="preserve">EventEntity</text></g><g fill="#FFF" fill-opacity="0" stroke="#FFF" stroke-opacity="0" transform="translate(390,430)"><rect width="78.5" height="58.5" x=".5" y=".5" stroke="none" clip-path="url(#clipPath3)"/></g><g transform="translate(390,430)"><rect width="78.5" height="58.5" x=".5" y=".5" fill="none" clip-path="url(#clipPath3)"/><text x="21" y="34.719" stroke="none" clip-path="url(#clipPath3)" font-family="sans-serif" font-size="14" font-weight="bold" xml:space="preserve">State</text></g><g fill="#FFF" fill-opacity="0" stroke="#FFF" stroke-opacity="0" transform="translate(490,520)"><rect width="118.5" height="58.5" x=".5" y=".5" stroke="none" clip-path="url(#clipPath4)"/></g><g transform="translate(490,520)"><rect width="118.5" height="58.5" x=".5" y=".5" fill="none" clip-path="url(#clipPath4)"/><text x="12" y="34.719" stroke="none" clip-path="url(#clipPath4)" font-family="sans-serif" font-size="14" font-weight="bold" xml:space="preserve">EventHandler</text></g><g fill="#FFF" fill-opacity="0" stroke="#FFF" stroke-opacity="0" transform="translate(670,430)"><rect width="98.5" height="58.5" x=".5" y=".5" stroke="none" clip-path="url(#clipPath2)"/></g><g transform="translate(670,430)"><rect width="98.5" height="58.5" x=".5" y=".5" fill="none" clip-path="url(#clipPath2)"/><text x="30" y="34.719" stroke="none" clip-path="url(#clipPath2)" font-family="sans-serif" font-size="14" font-weight="bold" xml:space="preserve">Event</text></g><g fill="#FFF" fill-opacity="0" stroke="#FFF" stroke-opacity="0" transform="translate(730,300)"><rect width="118.5" height="58.5" x=".5" y=".5" stroke="none" clip-path="url(#clipPath4)"/></g><g transform="translate(730,300)"><rect width="118.5" height="58.5" x=".5" y=".5" fill="none" clip-path="url(#clipPath4)"/><text x="17" y="34.719" stroke="none" clip-path="url(#clipPath4)" font-family="sans-serif" font-size="14" font-weight="bold" xml:space="preserve">EventQueue</text></g><g fill="#FFF" fill-opacity="0" stroke="#FFF" stroke-opacity="0" transform="translate(500,300)"><rect width="118.5" height="58.5" x=".5" y=".5" stroke="none" clip-path="url(#clipPath4)"/></g><g transform="translate(500,300)"><rect width="118.5" height="58.5" x=".5" y=".5" fill="none" clip-path="url(#clipPath4)"/><text x="23" y="34.719" stroke="none" clip-path="url(#clipPath4)" font-family="sans-serif" font-size="14" font-weight="bold" xml:space="preserve">EventLoop</text></g><g stroke-dasharray="8 5" stroke-linecap="butt" stroke-miterlimit="5"><path fill="none" d="M59.5 70.5 L10.5 70.5" clip-path="url(#clipPath5)" transform="translate(730,480)"/><path fill="none" d="M10.5 70.5 L10.5 10.5" clip-path="url(#clipPath5)" transform="translate(730,480)"/><path fill="none" stroke-dasharray="none" stroke-linecap="square" stroke-miterlimit="10" d="M48.7417 64 L60 70.5 L48.7417 77" clip-path="url(#clipPath5)" transform="translate(730,480)"/></g><g stroke-dasharray="8 5" stroke-linecap="butt" stroke-miterlimit="5"><path fill="none" d="M10.5 109.5 L10.5 10.5" clip-path="url(#clipPath6)" transform="translate(420,320)"/><path fill="none" d="M10.5 10.5 L80.5 10.5" clip-path="url(#clipPath6)" transform="translate(420,320)"/><path fill="none" stroke-dasharray="none" stroke-linecap="square" stroke-miterlimit="10" d="M17 98.7417 L10.5 110 L4 98.7417" clip-path="url(#clipPath6)" transform="translate(420,320)"/></g><g stroke-dasharray="8 5" stroke-linecap="butt" stroke-miterlimit="5"><path fill="none" d="M11.5 70.5 L90.5 70.5" clip-path="url(#clipPath7)" transform="translate(600,480)"/><path fill="none" d="M90.5 70.5 L90.5 10.5" clip-path="url(#clipPath7)" transform="translate(600,480)"/><path fill="none" stroke-dasharray="none" stroke-linecap="square" stroke-miterlimit="10" d="M22.2583 77 L11 70.5 L22.2583 64" clip-path="url(#clipPath7)" transform="translate(600,480)"/></g><g stroke-dasharray="8 5" stroke-linecap="butt" stroke-miterlimit="5"><path fill="none" d="M10.5 169.5 L10.5 10.5" clip-path="url(#clipPath8)" transform="translate(530,350)"/><path fill="none" stroke-dasharray="none" stroke-linecap="square" stroke-miterlimit="10" d="M17 158.7417 L10.5 170 L4 158.7417" clip-path="url(#clipPath8)" transform="translate(530,350)"/></g><g stroke-dasharray="8 5" stroke-linecap="butt" stroke-miterlimit="5"><path fill="none" d="M10.5 79.5 L10.5 10.5" clip-path="url(#clipPath9)" transform="translate(740,350)"/><path fill="none" stroke-dasharray="none" stroke-linecap="square" stroke-miterlimit="10" d="M17 68.7417 L10.5 80 L4 68.7417" clip-path="url(#clipPath9)" transform="translate(740,350)"/></g><g stroke-dasharray="8 5" stroke-linecap="butt" stroke-miterlimit="5"><path fill="none" d="M89.5 110.5 L10.5 110.5" clip-path="url(#clipPath10)" transform="translate(580,350)"/><path fill="none" d="M10.5 110.5 L10.5 10.5" clip-path="url(#clipPath10)" transform="translate(580,350)"/><path fill="none" stroke-dasharray="none" stroke-linecap="square" stroke-miterlimit="10" d="M78.7417 104 L90 110.5 L78.7417 117" clip-path="url(#clipPath10)" transform="translate(580,350)"/></g><g stroke-dasharray="8 5" stroke-linecap="butt" stroke-miterlimit="5"><path fill="none" d="M119.5 10.5 L10.5 10.5" clip-path="url(#clipPath11)" transform="translate(610,320)"/><path fill="none" stroke-dasharray="none" stroke-linecap="square" stroke-miterlimit="10" d="M108.7417 4 L120 10.5 L108.7417 17" clip-path="url(#clipPath11)" transform="translate(610,320)"/></g></g></svg>