<svg xmlns="http://www.w3.org/2000/svg" xmlns:xlink="http://www.w3.org/1999/xlink" width="800" height="490" fill="#000" fill-opacity="1" stroke="#000" stroke-dasharray="none" stroke-dashoffset="0" stroke-linecap="square" stroke-linejoin="miter" stroke-miterlimit="10" stroke-opacity="1" stroke-width="1" color-interpolation="auto" color-rendering="auto" font-family="'Dialog'" font-size="12" font-style="normal" font-weight="normal" image-rendering="auto" shape-rendering="auto" text-rendering="auto" viewBox="270 480 800 490"><g><defs id="defs1"><clipPath id="clipPath1" clipPathUnits="userSpaceOnUse"><path d="M0 0 L2147483647 0 L2147483647 2147483647 L0 2147483647 L0 0 Z"/></clipPath><clipPath id="clipPath2" clipPathUnits="userSpaceOnUse"><path d="M0 0 L0 60 L100 60 L100 0 Z"/></clipPath><clipPath id="clipPath3" clipPathUnits="userSpaceOnUse"><path d="M0 0 L0 60 L170 60 L170 0 Z"/></clipPath><clipPath id="clipPath4" clipPathUnits="userSpaceOnUse"><path d="M0 0 L0 90 L230 90 L230 0 Z"/></clipPath><clipPath id="clipPath5" clipPathUnits="userSpaceOnUse"><path d="M0 0 L0 90 L180 90 L180 0 Z"/></clipPath><clipPath id="clipPath6" clipPathUnits="userSpaceOnUse"><path d="M0 0 L0 80 L170 80 L170 0 Z"/></clipPath><clipPath id="clipPath7" clipPathUnits="userSpaceOnUse"><path d="M0 0 L0 180 L240 180 L240 0 Z"/></clipPath><clipPath id="clipPath8" clipPathUnits="userSpaceOnUse"><path d="M0 0 L0 30 L90 30 L90 0 Z"/></clipPath><clipPath id="clipPath9" clipPathUnits="userSpaceOnUse"><path d="M0 0 L0 30 L180 30 L180 0 Z"/></clipPath><clipPath id="clipPath10" clipPathUnits="userSpaceOnUse"><path d="M0 0 L0 80 L30 80 L30 0 Z"/></clipPath><clipPath id="clipPath11" clipPathUnits="userSpaceOnUse"><path d="M0 0 L0 100 L120 100 L120 0 Z"/></clipPath><clipPath id="clipPath12" clipPathUnits="userSpaceOnUse"><path d="M0 0 L0 200 L30 200 L30 0 Z"/></clipPath></defs><g fill="#FFF" fill-opacity="0" stroke="#FFF" stroke-opacity="0" transform="translate(950,500)"><rect width="98.5" height="58.5" x=".5" y=".5" stroke="none" clip-path="url(#clipPath2)"/></g><g transform="translate(950,500)"><rect width="98.5" height="58.5" x=".5" y=".5" fill="none" clip-path="url(#clipPath2)"/><text x="16" y="34.719" stroke="none" clip-path="url(#clipPath2)" font-family="sans-serif" font-size="14" font-weight="bold" xml:space="preserve">Keyframe</text></g><g fill="#FFF" fill-opacity="0" stroke="#FFF" stroke-opacity="0" transform="translate(720,500)"><rect width="168.5" height="58.5" x=".5" y=".5" stroke="none" clip-path="url(#clipPath3)"/></g><g transform="translate(720,500)"><rect width="168.5" height="58.5" x=".5" y=".5" fill="none" clip-path="url(#clipPath3)"/><text x="16" y="34.719" stroke="none" clip-path="url(#clipPath3)" font-family="sans-serif" font-size="14" font-weight="bold" xml:space="preserve">KeyframeContainer</text></g><g fill="#0F0" fill-opacity=".49" stroke="#0F0" stroke-opacity=".49" transform="translate(730,860)"><rect width="228.5" height="88.5" x=".5" y=".5" stroke="none" clip-path="url(#clipPath4)"/></g><g transform="translate(730,860)"><rect width="228.5" height="88.5" x=".5" y=".5" fill="none" clip-path="url(#clipPath4)"/><text x="75" y="18.359" stroke="none" clip-path="url(#clipPath4)" font-family="sans-serif" font-size="14" font-weight="bold" xml:space="preserve">Segmented</text><path fill="none" d="M1 24.3594 L229 24.3594" clip-path="url(#clipPath4)"/><text x="5" y="39.719" stroke="none" clip-path="url(#clipPath4)" font-family="sans-serif" font-size="14" xml:space="preserve">set_insert_jump(time_t, T, T): void</text><text x="5" y="56.078" stroke="none" clip-path="url(#clipPath4)" font-family="sans-serif" font-size="14" xml:space="preserve">set_last_jump(time_t, T, T): void</text></g><g fill="#0F0" fill-opacity=".49" stroke="#0F0" stroke-opacity=".49" transform="translate(510,860)"><rect width="178.5" height="88.5" x=".5" y=".5" stroke="none" clip-path="url(#clipPath5)"/></g><g transform="translate(510,860)"><rect width="178.5" height="88.5" x=".5" y=".5" fill="none" clip-path="url(#clipPath5)"/><text x="49" y="18.359" stroke="none" clip-path="url(#clipPath5)" font-family="sans-serif" font-size="14" font-weight="bold" xml:space="preserve">Continuous</text><path fill="none" d="M1 24.3594 L179 24.3594" clip-path="url(#clipPath5)"/><text x="5" y="39.719" stroke="none" clip-path="url(#clipPath5)" font-family="sans-serif" font-size="14" xml:space="preserve">set_insert(time_t, T): void</text><text x="5" y="56.078" stroke="none" clip-path="url(#clipPath5)" font-family="sans-serif" font-size="14" xml:space="preserve">set_last(time_t, T): void</text></g><g fill="#FFAFAF" fill-opacity=".49" stroke="#FFAFAF" stroke-opacity=".49" transform="translate(620,730)"><rect width="168.5" height="78.5" x=".5" y=".5" stroke="none" clip-path="url(#clipPath6)"/></g><g transform="translate(620,730)"><rect width="168.5" height="78.5" x=".5" y=".5" fill="none" clip-path="url(#clipPath6)"/><text x="48" y="18.359" stroke="none" clip-path="url(#clipPath6)" font-family="sans-serif" font-size="14" xml:space="preserve">«interface»</text><text x="40" y="34.719" stroke="none" clip-path="url(#clipPath6)" font-family="sans-serif" font-size="14" font-weight="bold" xml:space="preserve">Interpolated</text><path fill="none" d="M1 40.7188 L169 40.7188" clip-path="url(#clipPath6)"/><text x="5" y="56.078" stroke="none" clip-path="url(#clipPath6)" font-family="sans-serif" font-size="14" xml:space="preserve">get(time_t): T</text></g><g fill="#0F0" fill-opacity=".49" stroke="#0F0" stroke-opacity=".49" transform="translate(290,860)"><rect width="178.5" height="88.5" x=".5" y=".5" stroke="none" clip-path="url(#clipPath5)"/></g><g transform="translate(290,860)"><rect width="178.5" height="88.5" x=".5" y=".5" fill="none" clip-path="url(#clipPath5)"/><text x="61" y="18.359" stroke="none" clip-path="url(#clipPath5)" font-family="sans-serif" font-size="14" font-weight="bold" xml:space="preserve">Discrete</text><path fill="none" d="M1 24.3594 L179 24.3594" clip-path="url(#clipPath5)"/><text x="5" y="39.719" stroke="none" clip-path="url(#clipPath5)" font-family="sans-serif" font-size="14" xml:space="preserve">get(time_t): T</text><text x="5" y="56.078" stroke="none" clip-path="url(#clipPath5)" font-family="sans-serif" font-size="14" xml:space="preserve">get_time(time_t): T</text><text x="5" y="72.438" stroke="none" clip-path="url(#clipPath5)" font-family="sans-serif" font-size="14" xml:space="preserve">get_previous(time_t): T</text></g><g fill="#FFAFAF" fill-opacity=".49" stroke="#FFAFAF" stroke-opacity=".49" transform="translate(330,510)"><rect width="238.5" height="178.5" x=".5" y=".5" stroke="none" clip-path="url(#clipPath7)"/></g><g transform="translate(330,510)"><rect width="238.5" height="178.5" x=".5" y=".5" fill="none" clip-path="url(#clipPath7)"/><text x="83" y="18.359" stroke="none" clip-path="url(#clipPath7)" font-family="sans-serif" font-size="14" xml:space="preserve">«interface»</text><text x="71" y="34.719" stroke="none" clip-path="url(#clipPath7)" font-family="sans-serif" font-size="14" font-weight="bold" xml:space="preserve">BaseCurve&lt;T&gt;</text><path fill="none" d="M1 40.7188 L239 40.7188" clip-path="url(#clipPath7)"/><text x="5" y="56.078" stroke="none" clip-path="url(#clipPath7)" font-family="sans-serif" font-size="14" font-style="italic" xml:space="preserve">get(time_t): T</text><text x="5" y="72.438" stroke="none" clip-path="url(#clipPath7)" font-family="sans-serif" font-size="14" xml:space="preserve">frame(time_t): pair&lt;time_t, T&gt;</text><text x="5" y="88.797" stroke="none" clip-path="url(#clipPath7)" font-family="sans-serif" font-size="14" xml:space="preserve">next_frame(time_t): pair&lt;time_t, T&gt;</text><text x="5" y="105.156" stroke="none" clip-path="url(#clipPath7)" font-family="sans-serif" font-size="14" xml:space="preserve">set_insert(time_t, T): void</text><text x="5" y="121.516" stroke="none" clip-path="url(#clipPath7)" font-family="sans-serif" font-size="14" xml:space="preserve">set_last(time_t, T): void</text><text x="5" y="137.875" stroke="none" clip-path="url(#clipPath7)" font-family="sans-serif" font-size="14" xml:space="preserve">set_replace(time_t, T): void</text><text x="5" y="154.234" stroke="none" clip-path="url(#clipPath7)" font-family="sans-serif" font-size="14" xml:space="preserve">sync(BaseCurve&lt;T&gt;, time_t): void</text></g><g stroke-dasharray="8 5" stroke-linecap="butt" stroke-miterlimit="5"><path fill="none" d="M69.5 10.5 L10.5 10.5" clip-path="url(#clipPath8)" transform="translate(880,520)"/><path fill="none" stroke-dasharray="none" stroke-linecap="square" stroke-miterlimit="10" d="M58.7417 4 L70 10.5 L58.7417 17" clip-path="url(#clipPath8)" transform="translate(880,520)"/></g><g stroke-dasharray="8 5" stroke-linecap="butt" stroke-miterlimit="5"><path fill="none" d="M159.5 10.5 L10.5 10.5" clip-path="url(#clipPath9)" transform="translate(560,520)"/><path fill="none" stroke-dasharray="none" stroke-linecap="square" stroke-miterlimit="10" d="M148.7417 4 L160 10.5 L148.7417 17" clip-path="url(#clipPath9)" transform="translate(560,520)"/></g><g><path fill="none" d="M10.5 11.5 L10.5 60.5" clip-path="url(#clipPath10)" transform="translate(760,800)"/><path fill="#fff" stroke="none" d="M4 22.2583 L10.5 11 L17 22.2583 Z" clip-path="url(#clipPath10)" transform="translate(760,800)"/><path fill="none" d="M4 22.2583 L10.5 11 L17 22.2583 Z" clip-path="url(#clipPath10)" transform="translate(760,800)"/></g><g><path fill="none" d="M10.5 11.5 L10.5 60.5" clip-path="url(#clipPath10)" transform="translate(630,800)"/><path fill="#fff" stroke="none" d="M4 22.2583 L10.5 11 L17 22.2583 Z" clip-path="url(#clipPath10)" transform="translate(630,800)"/><path fill="none" d="M4 22.2583 L10.5 11 L17 22.2583 Z" clip-path="url(#clipPath10)" transform="translate(630,800)"/></g><g><path fill="none" d="M10.5 11.5 L10.5 80.5" clip-path="url(#clipPath11)" transform="translate(520,680)"/><path fill="none" d="M10.5 80.5 L100.5 80.5" clip-path="url(#clipPath11)" transform="translate(520,680)"/><path fill="#fff" stroke="none" d="M4 22.2583 L10.5 11 L17 22.2583 Z" clip-path="url(#clipPath11)" transform="translate(520,680)"/><path fill="none" d="M4 22.2583 L10.5 11 L17 22.2583 Z" clip-path="url(#clipPath11)" transform="translate(520,680)"/></g><g><path fill="none" d="M10.5 11.5 L10.5 180.5" clip-path="url(#clipPath12)" transform="translate(390,680)"/><path fill="#fff" stroke="none" d="M4 22.2583 L10.5 11 L17 22.2583 Z" clip-path="url(#clipPath12)" transform="translate(390,680)"/><path fill="none" d="M4 22.2583 L10.5 11 L17 22.2583 Z" clip-path="url(#clipPath12)" transform="translate(390,680)"/></g></g></svg>